<?xml version="1.0" encoding="UTF-8" standalone="no"?>
<!DOCTYPE svg PUBLIC "-//W3C//DTD SVG 1.1//EN"
 "http://www.w3.org/Graphics/SVG/1.1/DTD/svg11.dtd">
<!-- Generated by graphviz version 11.0.0 (20240428.1522)
 -->
<!-- Title: G Pages: 1 -->
<svg width="2051pt" height="636pt"
 viewBox="0.00 0.00 2050.58 636.00" xmlns="http://www.w3.org/2000/svg" xmlns:xlink="http://www.w3.org/1999/xlink">
<g id="graph0" class="graph" transform="scale(1 1) rotate(0) translate(4 632)">
<title>G</title>
<polygon fill="white" stroke="none" points="-4,4 -4,-632 2046.58,-632 2046.58,4 -4,4"/>
<g id="clust1" class="cluster">
<title>cluster_max</title>
<polygon fill="none" stroke="black" points="93.58,-8 93.58,-564 848.58,-564 848.58,-8 93.58,-8"/>
</g>
<g id="clust2" class="cluster">
<title>cluster_main</title>
<polygon fill="none" stroke="black" points="856.58,-152 856.58,-564 2034.58,-564 2034.58,-152 856.58,-152"/>
</g>
<!-- node0 -->
<g id="node1" class="node">
<title>node0</title>
<ellipse fill="none" stroke="black" cx="533.58" cy="-610" rx="67.53" ry="18"/>
<text text-anchor="middle" x="533.58" y="-604.58" font-family="Times New Roman,serif" font-size="14.00">Program (Max)</text>
</g>
<!-- node1 -->
<g id="node2" class="node">
<title>node1</title>
<ellipse fill="none" stroke="black" cx="42.58" cy="-538" rx="42.58" ry="18"/>
<text text-anchor="middle" x="42.58" y="-532.58" font-family="Times New Roman,serif" font-size="14.00">Var (ref)</text>
</g>
<!-- node0&#45;&gt;node1 -->
<g id="edge1" class="edge">
<title>node0&#45;&gt;node1</title>
<path fill="none" stroke="black" d="M468.04,-605.47C362.22,-599.25 158.62,-584.97 89.58,-564 85,-562.61 80.36,-560.76 75.86,-558.69"/>
<polygon fill="black" stroke="black" points="77.58,-555.64 67.07,-554.27 74.43,-561.89 77.58,-555.64"/>
</g>
<!-- max -->
<g id="node3" class="node">
<title>max</title>
<ellipse fill="none" stroke="black" cx="533.58" cy="-538" rx="63.54" ry="18"/>
<text text-anchor="middle" x="533.58" y="-532.58" font-family="Times New Roman,serif" font-size="14.00">Method (max)</text>
</g>
<!-- node0&#45;&gt;max -->
<g id="edge2" class="edge">
<title>node0&#45;&gt;max</title>
<path fill="none" stroke="black" d="M533.58,-591.7C533.58,-584.41 533.58,-575.73 533.58,-567.54"/>
<polygon fill="black" stroke="black" points="537.08,-567.62 533.58,-557.62 530.08,-567.62 537.08,-567.62"/>
</g>
<!-- main -->
<g id="node22" class="node">
<title>main</title>
<ellipse fill="none" stroke="black" cx="1055.58" cy="-538" rx="65.53" ry="18"/>
<text text-anchor="middle" x="1055.58" y="-532.58" font-family="Times New Roman,serif" font-size="14.00">Method (main)</text>
</g>
<!-- node0&#45;&gt;main -->
<g id="edge21" class="edge">
<title>node0&#45;&gt;main</title>
<path fill="none" stroke="black" d="M592.95,-601.04C690.31,-587.98 883.37,-562.09 986.63,-548.25"/>
<polygon fill="black" stroke="black" points="986.91,-551.74 996.36,-546.94 985.98,-544.8 986.91,-551.74"/>
</g>
<!-- node3 -->
<g id="node4" class="node">
<title>node3</title>
<ellipse fill="none" stroke="black" cx="441.58" cy="-466" rx="36.59" ry="18"/>
<text text-anchor="middle" x="441.58" y="-460.57" font-family="Times New Roman,serif" font-size="14.00">Var (a)</text>
</g>
<!-- max&#45;&gt;node3 -->
<g id="edge3" class="edge">
<title>max&#45;&gt;node3</title>
<path fill="none" stroke="black" d="M512.24,-520.76C499.65,-511.18 483.55,-498.94 469.91,-488.55"/>
<polygon fill="black" stroke="black" points="472.21,-485.9 462.13,-482.63 467.97,-491.47 472.21,-485.9"/>
</g>
<!-- node4 -->
<g id="node5" class="node">
<title>node4</title>
<ellipse fill="none" stroke="black" cx="533.58" cy="-466" rx="37.59" ry="18"/>
<text text-anchor="middle" x="533.58" y="-460.57" font-family="Times New Roman,serif" font-size="14.00">Var (b)</text>
</g>
<!-- max&#45;&gt;node4 -->
<g id="edge4" class="edge">
<title>max&#45;&gt;node4</title>
<path fill="none" stroke="black" d="M533.58,-519.7C533.58,-512.41 533.58,-503.73 533.58,-495.54"/>
<polygon fill="black" stroke="black" points="537.08,-495.62 533.58,-485.62 530.08,-495.62 537.08,-495.62"/>
</g>
<!-- node5 -->
<g id="node6" class="node">
<title>node5</title>
<ellipse fill="none" stroke="black" cx="621.58" cy="-466" rx="32.6" ry="18"/>
<text text-anchor="middle" x="621.58" y="-460.57" font-family="Times New Roman,serif" font-size="14.00">Block</text>
</g>
<!-- max&#45;&gt;node5 -->
<g id="edge5" class="edge">
<title>max&#45;&gt;node5</title>
<path fill="none" stroke="black" d="M553.99,-520.76C566.2,-511.05 581.85,-498.6 595.02,-488.13"/>
<polygon fill="black" stroke="black" points="596.84,-491.16 602.48,-482.19 592.48,-485.68 596.84,-491.16"/>
</g>
<!-- node6 -->
<g id="node7" class="node">
<title>node6</title>
<ellipse fill="none" stroke="black" cx="621.58" cy="-394" rx="32.1" ry="18"/>
<text text-anchor="middle" x="621.58" y="-388.57" font-family="Times New Roman,serif" font-size="14.00">ElseIf</text>
</g>
<!-- node5&#45;&gt;node6 -->
<g id="edge6" class="edge">
<title>node5&#45;&gt;node6</title>
<path fill="none" stroke="black" d="M621.58,-447.7C621.58,-440.41 621.58,-431.73 621.58,-423.54"/>
<polygon fill="black" stroke="black" points="625.08,-423.62 621.58,-413.62 618.08,-423.62 625.08,-423.62"/>
</g>
<!-- node7 -->
<g id="node8" class="node">
<title>node7</title>
<ellipse fill="none" stroke="black" cx="582.58" cy="-322" rx="27" ry="18"/>
<text text-anchor="middle" x="582.58" y="-316.57" font-family="Times New Roman,serif" font-size="14.00">If</text>
</g>
<!-- node6&#45;&gt;node7 -->
<g id="edge7" class="edge">
<title>node6&#45;&gt;node7</title>
<path fill="none" stroke="black" d="M612.34,-376.41C607.76,-368.19 602.12,-358.06 596.98,-348.85"/>
<polygon fill="black" stroke="black" points="600.15,-347.34 592.23,-340.31 594.03,-350.75 600.15,-347.34"/>
</g>
<!-- node17 -->
<g id="node18" class="node">
<title>node17</title>
<ellipse fill="none" stroke="black" cx="664.58" cy="-322" rx="32.6" ry="18"/>
<text text-anchor="middle" x="664.58" y="-316.57" font-family="Times New Roman,serif" font-size="14.00">Block</text>
</g>
<!-- node6&#45;&gt;node17 -->
<g id="edge17" class="edge">
<title>node6&#45;&gt;node17</title>
<path fill="none" stroke="black" d="M631.55,-376.76C636.66,-368.46 642.99,-358.15 648.74,-348.79"/>
<polygon fill="black" stroke="black" points="651.62,-350.79 653.87,-340.44 645.65,-347.13 651.62,-350.79"/>
</g>
<!-- node8 -->
<g id="node9" class="node">
<title>node8</title>
<ellipse fill="none" stroke="black" cx="426.58" cy="-250" rx="55.06" ry="18"/>
<text text-anchor="middle" x="426.58" y="-244.57" font-family="Times New Roman,serif" font-size="14.00">BinExpr (&gt;)</text>
</g>
<!-- node7&#45;&gt;node8 -->
<g id="edge8" class="edge">
<title>node7&#45;&gt;node8</title>
<path fill="none" stroke="black" d="M560.56,-311.12C536.77,-300.45 498.31,-283.18 468.68,-269.89"/>
<polygon fill="black" stroke="black" points="470.14,-266.71 459.59,-265.81 467.28,-273.1 470.14,-266.71"/>
</g>
<!-- node13 -->
<g id="node14" class="node">
<title>node13</title>
<ellipse fill="none" stroke="black" cx="582.58" cy="-250" rx="32.6" ry="18"/>
<text text-anchor="middle" x="582.58" y="-244.57" font-family="Times New Roman,serif" font-size="14.00">Block</text>
</g>
<!-- node7&#45;&gt;node13 -->
<g id="edge13" class="edge">
<title>node7&#45;&gt;node13</title>
<path fill="none" stroke="black" d="M582.58,-303.7C582.58,-296.41 582.58,-287.73 582.58,-279.54"/>
<polygon fill="black" stroke="black" points="586.08,-279.62 582.58,-269.62 579.08,-279.62 586.08,-279.62"/>
</g>
<!-- node9 -->
<g id="node10" class="node">
<title>node9</title>
<ellipse fill="none" stroke="black" cx="203.58" cy="-178" rx="102.46" ry="18"/>
<text text-anchor="middle" x="203.58" y="-172.57" font-family="Times New Roman,serif" font-size="14.00">Designator (Kind: Local)</text>
</g>
<!-- node8&#45;&gt;node9 -->
<g id="edge9" class="edge">
<title>node8&#45;&gt;node9</title>
<path fill="none" stroke="black" d="M387.74,-236.81C353.29,-225.99 302.46,-210.04 262.92,-197.63"/>
<polygon fill="black" stroke="black" points="264.12,-194.34 253.53,-194.68 262.03,-201.01 264.12,-194.34"/>
</g>
<!-- node11 -->
<g id="node12" class="node">
<title>node11</title>
<ellipse fill="none" stroke="black" cx="426.58" cy="-178" rx="102.46" ry="18"/>
<text text-anchor="middle" x="426.58" y="-172.57" font-family="Times New Roman,serif" font-size="14.00">Designator (Kind: Local)</text>
</g>
<!-- node8&#45;&gt;node11 -->
<g id="edge11" class="edge">
<title>node8&#45;&gt;node11</title>
<path fill="none" stroke="black" d="M426.58,-231.7C426.58,-224.41 426.58,-215.73 426.58,-207.54"/>
<polygon fill="black" stroke="black" points="430.08,-207.62 426.58,-197.62 423.08,-207.62 430.08,-207.62"/>
</g>
<!-- node10 -->
<g id="node11" class="node">
<title>node10</title>
<ellipse fill="none" stroke="black" cx="203.58" cy="-106" rx="71.52" ry="18"/>
<text text-anchor="middle" x="203.58" y="-100.58" font-family="Times New Roman,serif" font-size="14.00">Ident (a [Local])</text>
</g>
<!-- node9&#45;&gt;node10 -->
<g id="edge10" class="edge">
<title>node9&#45;&gt;node10</title>
<path fill="none" stroke="black" d="M203.58,-159.7C203.58,-152.41 203.58,-143.73 203.58,-135.54"/>
<polygon fill="black" stroke="black" points="207.08,-135.62 203.58,-125.62 200.08,-135.62 207.08,-135.62"/>
</g>
<!-- node12 -->
<g id="node13" class="node">
<title>node12</title>
<ellipse fill="none" stroke="black" cx="381.58" cy="-106" rx="72.52" ry="18"/>
<text text-anchor="middle" x="381.58" y="-100.58" font-family="Times New Roman,serif" font-size="14.00">Ident (b [Local])</text>
</g>
<!-- node11&#45;&gt;node12 -->
<g id="edge12" class="edge">
<title>node11&#45;&gt;node12</title>
<path fill="none" stroke="black" d="M415.46,-159.7C410.39,-151.81 404.28,-142.3 398.65,-133.55"/>
<polygon fill="black" stroke="black" points="401.75,-131.9 393.4,-125.38 395.86,-135.68 401.75,-131.9"/>
</g>
<!-- node14 -->
<g id="node15" class="node">
<title>node14</title>
<ellipse fill="none" stroke="black" cx="582.58" cy="-178" rx="35.6" ry="18"/>
<text text-anchor="middle" x="582.58" y="-172.57" font-family="Times New Roman,serif" font-size="14.00">Return</text>
</g>
<!-- node13&#45;&gt;node14 -->
<g id="edge14" class="edge">
<title>node13&#45;&gt;node14</title>
<path fill="none" stroke="black" d="M582.58,-231.7C582.58,-224.41 582.58,-215.73 582.58,-207.54"/>
<polygon fill="black" stroke="black" points="586.08,-207.62 582.58,-197.62 579.08,-207.62 586.08,-207.62"/>
</g>
<!-- node15 -->
<g id="node16" class="node">
<title>node15</title>
<ellipse fill="none" stroke="black" cx="574.58" cy="-106" rx="102.46" ry="18"/>
<text text-anchor="middle" x="574.58" y="-100.58" font-family="Times New Roman,serif" font-size="14.00">Designator (Kind: Local)</text>
</g>
<!-- node14&#45;&gt;node15 -->
<g id="edge15" class="edge">
<title>node14&#45;&gt;node15</title>
<path fill="none" stroke="black" d="M580.6,-159.7C579.77,-152.41 578.78,-143.73 577.84,-135.54"/>
<polygon fill="black" stroke="black" points="581.32,-135.15 576.71,-125.61 574.37,-135.94 581.32,-135.15"/>
</g>
<!-- node16 -->
<g id="node17" class="node">
<title>node16</title>
<ellipse fill="none" stroke="black" cx="574.58" cy="-34" rx="71.52" ry="18"/>
<text text-anchor="middle" x="574.58" y="-28.57" font-family="Times New Roman,serif" font-size="14.00">Ident (a [Local])</text>
</g>
<!-- node15&#45;&gt;node16 -->
<g id="edge16" class="edge">
<title>node15&#45;&gt;node16</title>
<path fill="none" stroke="black" d="M574.58,-87.7C574.58,-80.41 574.58,-71.73 574.58,-63.54"/>
<polygon fill="black" stroke="black" points="578.08,-63.62 574.58,-53.62 571.08,-63.62 578.08,-63.62"/>
</g>
<!-- node18 -->
<g id="node19" class="node">
<title>node18</title>
<ellipse fill="none" stroke="black" cx="703.58" cy="-250" rx="35.6" ry="18"/>
<text text-anchor="middle" x="703.58" y="-244.57" font-family="Times New Roman,serif" font-size="14.00">Return</text>
</g>
<!-- node17&#45;&gt;node18 -->
<g id="edge18" class="edge">
<title>node17&#45;&gt;node18</title>
<path fill="none" stroke="black" d="M673.82,-304.41C678.34,-296.3 683.88,-286.35 688.96,-277.25"/>
<polygon fill="black" stroke="black" points="691.86,-279.23 693.67,-268.79 685.74,-275.82 691.86,-279.23"/>
</g>
<!-- node19 -->
<g id="node20" class="node">
<title>node19</title>
<ellipse fill="none" stroke="black" cx="738.58" cy="-178" rx="102.46" ry="18"/>
<text text-anchor="middle" x="738.58" y="-172.57" font-family="Times New Roman,serif" font-size="14.00">Designator (Kind: Local)</text>
</g>
<!-- node18&#45;&gt;node19 -->
<g id="edge19" class="edge">
<title>node18&#45;&gt;node19</title>
<path fill="none" stroke="black" d="M712.05,-232.05C715.91,-224.35 720.57,-215.03 724.9,-206.36"/>
<polygon fill="black" stroke="black" points="727.92,-208.14 729.27,-197.63 721.66,-205.01 727.92,-208.14"/>
</g>
<!-- node20 -->
<g id="node21" class="node">
<title>node20</title>
<ellipse fill="none" stroke="black" cx="767.58" cy="-106" rx="72.52" ry="18"/>
<text text-anchor="middle" x="767.58" y="-100.58" font-family="Times New Roman,serif" font-size="14.00">Ident (b [Local])</text>
</g>
<!-- node19&#45;&gt;node20 -->
<g id="edge20" class="edge">
<title>node19&#45;&gt;node20</title>
<path fill="none" stroke="black" d="M745.75,-159.7C748.88,-152.15 752.62,-143.12 756.11,-134.68"/>
<polygon fill="black" stroke="black" points="759.32,-136.08 759.92,-125.5 752.85,-133.4 759.32,-136.08"/>
</g>
<!-- node22 -->
<g id="node23" class="node">
<title>node22</title>
<ellipse fill="none" stroke="black" cx="998.58" cy="-466" rx="43.08" ry="18"/>
<text text-anchor="middle" x="998.58" y="-460.57" font-family="Times New Roman,serif" font-size="14.00">Var (val)</text>
</g>
<!-- main&#45;&gt;node22 -->
<g id="edge22" class="edge">
<title>main&#45;&gt;node22</title>
<path fill="none" stroke="black" d="M1041.78,-520.05C1034.96,-511.68 1026.6,-501.4 1019.05,-492.13"/>
<polygon fill="black" stroke="black" points="1021.84,-490.03 1012.82,-484.48 1016.42,-494.45 1021.84,-490.03"/>
</g>
<!-- node23 -->
<g id="node24" class="node">
<title>node23</title>
<ellipse fill="none" stroke="black" cx="1112.58" cy="-466" rx="52.56" ry="18"/>
<text text-anchor="middle" x="1112.58" y="-460.57" font-family="Times New Roman,serif" font-size="14.00">Var (result)</text>
</g>
<!-- main&#45;&gt;node23 -->
<g id="edge23" class="edge">
<title>main&#45;&gt;node23</title>
<path fill="none" stroke="black" d="M1069.38,-520.05C1076.1,-511.8 1084.32,-501.7 1091.79,-492.54"/>
<polygon fill="black" stroke="black" points="1094.35,-494.93 1097.95,-484.96 1088.93,-490.51 1094.35,-494.93"/>
</g>
<!-- node24 -->
<g id="node25" class="node">
<title>node24</title>
<ellipse fill="none" stroke="black" cx="1306.58" cy="-466" rx="32.6" ry="18"/>
<text text-anchor="middle" x="1306.58" y="-460.57" font-family="Times New Roman,serif" font-size="14.00">Block</text>
</g>
<!-- main&#45;&gt;node24 -->
<g id="edge24" class="edge">
<title>main&#45;&gt;node24</title>
<path fill="none" stroke="black" d="M1100.45,-524.49C1147.77,-511.29 1221.61,-490.7 1266.87,-478.07"/>
<polygon fill="black" stroke="black" points="1267.58,-481.51 1276.28,-475.45 1265.7,-474.77 1267.58,-481.51"/>
</g>
<!-- node25 -->
<g id="node26" class="node">
<title>node25</title>
<ellipse fill="none" stroke="black" cx="1136.58" cy="-394" rx="54.06" ry="18"/>
<text text-anchor="middle" x="1136.58" y="-388.57" font-family="Times New Roman,serif" font-size="14.00">Assignment</text>
</g>
<!-- node24&#45;&gt;node25 -->
<g id="edge25" class="edge">
<title>node24&#45;&gt;node25</title>
<path fill="none" stroke="black" d="M1281.13,-454.52C1254.42,-443.52 1211.93,-426.03 1179.92,-412.85"/>
<polygon fill="black" stroke="black" points="1181.49,-409.71 1170.91,-409.13 1178.82,-416.18 1181.49,-409.71"/>
</g>
<!-- node29 -->
<g id="node30" class="node">
<title>node29</title>
<ellipse fill="none" stroke="black" cx="1306.58" cy="-394" rx="40.09" ry="18"/>
<text text-anchor="middle" x="1306.58" y="-388.57" font-family="Times New Roman,serif" font-size="14.00">IntRead</text>
</g>
<!-- node24&#45;&gt;node29 -->
<g id="edge29" class="edge">
<title>node24&#45;&gt;node29</title>
<path fill="none" stroke="black" d="M1306.58,-447.7C1306.58,-440.41 1306.58,-431.73 1306.58,-423.54"/>
<polygon fill="black" stroke="black" points="1310.08,-423.62 1306.58,-413.62 1303.08,-423.62 1310.08,-423.62"/>
</g>
<!-- node32 -->
<g id="node33" class="node">
<title>node32</title>
<ellipse fill="none" stroke="black" cx="1529.58" cy="-394" rx="54.06" ry="18"/>
<text text-anchor="middle" x="1529.58" y="-388.57" font-family="Times New Roman,serif" font-size="14.00">Assignment</text>
</g>
<!-- node24&#45;&gt;node32 -->
<g id="edge32" class="edge">
<title>node24&#45;&gt;node32</title>
<path fill="none" stroke="black" d="M1334.37,-456.28C1370.86,-444.82 1435.53,-424.52 1480.39,-410.44"/>
<polygon fill="black" stroke="black" points="1481.4,-413.79 1489.89,-407.46 1479.3,-407.11 1481.4,-413.79"/>
</g>
<!-- node40 -->
<g id="node41" class="node">
<title>node40</title>
<ellipse fill="none" stroke="black" cx="1770.58" cy="-394" rx="82" ry="18"/>
<text text-anchor="middle" x="1770.58" y="-388.57" font-family="Times New Roman,serif" font-size="14.00">IntPrint (width = 0)</text>
</g>
<!-- node24&#45;&gt;node40 -->
<g id="edge40" class="edge">
<title>node24&#45;&gt;node40</title>
<path fill="none" stroke="black" d="M1337.75,-460.3C1409.72,-449.44 1589.28,-422.35 1693.11,-406.69"/>
<polygon fill="black" stroke="black" points="1693.59,-410.15 1702.96,-405.2 1692.55,-403.23 1693.59,-410.15"/>
</g>
<!-- node26 -->
<g id="node27" class="node">
<title>node26</title>
<ellipse fill="none" stroke="black" cx="966.58" cy="-322" rx="102.46" ry="18"/>
<text text-anchor="middle" x="966.58" y="-316.57" font-family="Times New Roman,serif" font-size="14.00">Designator (Kind: Static)</text>
</g>
<!-- node25&#45;&gt;node26 -->
<g id="edge26" class="edge">
<title>node25&#45;&gt;node26</title>
<path fill="none" stroke="black" d="M1103.4,-379.34C1078.55,-369.11 1044.15,-354.94 1016.06,-343.37"/>
<polygon fill="black" stroke="black" points="1017.62,-340.23 1007.04,-339.66 1014.95,-346.7 1017.62,-340.23"/>
</g>
<!-- node28 -->
<g id="node29" class="node">
<title>node28</title>
<ellipse fill="none" stroke="black" cx="1136.58" cy="-322" rx="49.57" ry="18"/>
<text text-anchor="middle" x="1136.58" y="-316.57" font-family="Times New Roman,serif" font-size="14.00">IntCon (5)</text>
</g>
<!-- node25&#45;&gt;node28 -->
<g id="edge28" class="edge">
<title>node25&#45;&gt;node28</title>
<path fill="none" stroke="black" d="M1136.58,-375.7C1136.58,-368.41 1136.58,-359.73 1136.58,-351.54"/>
<polygon fill="black" stroke="black" points="1140.08,-351.62 1136.58,-341.62 1133.08,-351.62 1140.08,-351.62"/>
</g>
<!-- node27 -->
<g id="node28" class="node">
<title>node27</title>
<ellipse fill="none" stroke="black" cx="942.58" cy="-250" rx="77.51" ry="18"/>
<text text-anchor="middle" x="942.58" y="-244.57" font-family="Times New Roman,serif" font-size="14.00">Ident (ref [Static])</text>
</g>
<!-- node26&#45;&gt;node27 -->
<g id="edge27" class="edge">
<title>node26&#45;&gt;node27</title>
<path fill="none" stroke="black" d="M960.65,-303.7C958.09,-296.24 955.03,-287.32 952.17,-278.97"/>
<polygon fill="black" stroke="black" points="955.49,-277.86 948.94,-269.54 948.87,-280.13 955.49,-277.86"/>
</g>
<!-- node30 -->
<g id="node31" class="node">
<title>node30</title>
<ellipse fill="none" stroke="black" cx="1306.58" cy="-322" rx="102.46" ry="18"/>
<text text-anchor="middle" x="1306.58" y="-316.57" font-family="Times New Roman,serif" font-size="14.00">Designator (Kind: Local)</text>
</g>
<!-- node29&#45;&gt;node30 -->
<g id="edge30" class="edge">
<title>node29&#45;&gt;node30</title>
<path fill="none" stroke="black" d="M1306.58,-375.7C1306.58,-368.41 1306.58,-359.73 1306.58,-351.54"/>
<polygon fill="black" stroke="black" points="1310.08,-351.62 1306.58,-341.62 1303.08,-351.62 1310.08,-351.62"/>
</g>
<!-- node31 -->
<g id="node32" class="node">
<title>node31</title>
<ellipse fill="none" stroke="black" cx="1116.58" cy="-250" rx="78.01" ry="18"/>
<text text-anchor="middle" x="1116.58" y="-244.57" font-family="Times New Roman,serif" font-size="14.00">Ident (val [Local])</text>
</g>
<!-- node30&#45;&gt;node31 -->
<g id="edge31" class="edge">
<title>node30&#45;&gt;node31</title>
<path fill="none" stroke="black" d="M1263.94,-305.29C1235.39,-294.77 1197.66,-280.87 1167.53,-269.77"/>
<polygon fill="black" stroke="black" points="1168.82,-266.51 1158.22,-266.34 1166.4,-273.08 1168.82,-266.51"/>
</g>
<!-- node33 -->
<g id="node34" class="node">
<title>node33</title>
<ellipse fill="none" stroke="black" cx="1529.58" cy="-322" rx="102.46" ry="18"/>
<text text-anchor="middle" x="1529.58" y="-316.57" font-family="Times New Roman,serif" font-size="14.00">Designator (Kind: Local)</text>
</g>
<!-- node32&#45;&gt;node33 -->
<g id="edge33" class="edge">
<title>node32&#45;&gt;node33</title>
<path fill="none" stroke="black" d="M1529.58,-375.7C1529.58,-368.41 1529.58,-359.73 1529.58,-351.54"/>
<polygon fill="black" stroke="black" points="1533.08,-351.62 1529.58,-341.62 1526.08,-351.62 1533.08,-351.62"/>
</g>
<!-- node35 -->
<g id="node36" class="node">
<title>node35</title>
<ellipse fill="none" stroke="black" cx="1693.58" cy="-322" rx="43.08" ry="18"/>
<text text-anchor="middle" x="1693.58" y="-316.57" font-family="Times New Roman,serif" font-size="14.00">Call max</text>
</g>
<!-- node32&#45;&gt;node35 -->
<g id="edge35" class="edge">
<title>node32&#45;&gt;node35</title>
<path fill="none" stroke="black" d="M1561.98,-379.17C1588.39,-367.9 1625.78,-351.94 1653.97,-339.91"/>
<polygon fill="black" stroke="black" points="1655.06,-343.25 1662.88,-336.1 1652.31,-336.81 1655.06,-343.25"/>
</g>
<!-- node34 -->
<g id="node35" class="node">
<title>node34</title>
<ellipse fill="none" stroke="black" cx="1300.58" cy="-250" rx="87.49" ry="18"/>
<text text-anchor="middle" x="1300.58" y="-244.57" font-family="Times New Roman,serif" font-size="14.00">Ident (result [Local])</text>
</g>
<!-- node33&#45;&gt;node34 -->
<g id="edge34" class="edge">
<title>node33&#45;&gt;node34</title>
<path fill="none" stroke="black" d="M1479.89,-305.81C1444.21,-294.91 1396.02,-280.17 1358.58,-268.73"/>
<polygon fill="black" stroke="black" points="1359.86,-265.46 1349.27,-265.88 1357.81,-272.15 1359.86,-265.46"/>
</g>
<!-- node36 -->
<g id="node37" class="node">
<title>node36</title>
<ellipse fill="none" stroke="black" cx="1508.58" cy="-250" rx="102.46" ry="18"/>
<text text-anchor="middle" x="1508.58" y="-244.57" font-family="Times New Roman,serif" font-size="14.00">Designator (Kind: Static)</text>
</g>
<!-- node35&#45;&gt;node36 -->
<g id="edge36" class="edge">
<title>node35&#45;&gt;node36</title>
<path fill="none" stroke="black" d="M1662.62,-309.28C1634.98,-298.83 1593.94,-283.3 1561.17,-270.9"/>
<polygon fill="black" stroke="black" points="1562.41,-267.63 1551.82,-267.36 1559.94,-274.17 1562.41,-267.63"/>
</g>
<!-- node38 -->
<g id="node39" class="node">
<title>node38</title>
<ellipse fill="none" stroke="black" cx="1731.58" cy="-250" rx="102.46" ry="18"/>
<text text-anchor="middle" x="1731.58" y="-244.57" font-family="Times New Roman,serif" font-size="14.00">Designator (Kind: Local)</text>
</g>
<!-- node35&#45;&gt;node38 -->
<g id="edge38" class="edge">
<title>node35&#45;&gt;node38</title>
<path fill="none" stroke="black" d="M1702.78,-304.05C1706.96,-296.35 1712.02,-287.03 1716.73,-278.36"/>
<polygon fill="black" stroke="black" points="1719.79,-280.06 1721.48,-269.61 1713.63,-276.72 1719.79,-280.06"/>
</g>
<!-- node37 -->
<g id="node38" class="node">
<title>node37</title>
<ellipse fill="none" stroke="black" cx="1508.58" cy="-178" rx="77.51" ry="18"/>
<text text-anchor="middle" x="1508.58" y="-172.57" font-family="Times New Roman,serif" font-size="14.00">Ident (ref [Static])</text>
</g>
<!-- node36&#45;&gt;node37 -->
<g id="edge37" class="edge">
<title>node36&#45;&gt;node37</title>
<path fill="none" stroke="black" d="M1508.58,-231.7C1508.58,-224.41 1508.58,-215.73 1508.58,-207.54"/>
<polygon fill="black" stroke="black" points="1512.08,-207.62 1508.58,-197.62 1505.08,-207.62 1512.08,-207.62"/>
</g>
<!-- node39 -->
<g id="node40" class="node">
<title>node39</title>
<ellipse fill="none" stroke="black" cx="1731.58" cy="-178" rx="78.01" ry="18"/>
<text text-anchor="middle" x="1731.58" y="-172.57" font-family="Times New Roman,serif" font-size="14.00">Ident (val [Local])</text>
</g>
<!-- node38&#45;&gt;node39 -->
<g id="edge39" class="edge">
<title>node38&#45;&gt;node39</title>
<path fill="none" stroke="black" d="M1731.58,-231.7C1731.58,-224.41 1731.58,-215.73 1731.58,-207.54"/>
<polygon fill="black" stroke="black" points="1735.08,-207.62 1731.58,-197.62 1728.08,-207.62 1735.08,-207.62"/>
</g>
<!-- node41 -->
<g id="node42" class="node">
<title>node41</title>
<ellipse fill="none" stroke="black" cx="1890.58" cy="-322" rx="102.46" ry="18"/>
<text text-anchor="middle" x="1890.58" y="-316.57" font-family="Times New Roman,serif" font-size="14.00">Designator (Kind: Local)</text>
</g>
<!-- node40&#45;&gt;node41 -->
<g id="edge41" class="edge">
<title>node40&#45;&gt;node41</title>
<path fill="none" stroke="black" d="M1798.41,-376.76C1814.39,-367.45 1834.68,-355.61 1852.16,-345.41"/>
<polygon fill="black" stroke="black" points="1853.88,-348.46 1860.76,-340.4 1850.36,-342.41 1853.88,-348.46"/>
</g>
<!-- node42 -->
<g id="node43" class="node">
<title>node42</title>
<ellipse fill="none" stroke="black" cx="1939.58" cy="-250" rx="87.49" ry="18"/>
<text text-anchor="middle" x="1939.58" y="-244.57" font-family="Times New Roman,serif" font-size="14.00">Ident (result [Local])</text>
</g>
<!-- node41&#45;&gt;node42 -->
<g id="edge42" class="edge">
<title>node41&#45;&gt;node42</title>
<path fill="none" stroke="black" d="M1902.69,-303.7C1908.27,-295.73 1915.01,-286.1 1921.2,-277.26"/>
<polygon fill="black" stroke="black" points="1923.87,-279.54 1926.74,-269.34 1918.14,-275.53 1923.87,-279.54"/>
</g>
</g>
</svg>
