<?xml version="1.0" encoding="UTF-8" standalone="no"?>
<!DOCTYPE svg PUBLIC "-//W3C//DTD SVG 1.1//EN"
 "http://www.w3.org/Graphics/SVG/1.1/DTD/svg11.dtd">
<!-- Generated by graphviz version 11.0.0 (20240428.1522)
 -->
<!-- Title: G Pages: 1 -->
<svg width="1858pt" height="1088pt"
 viewBox="0.00 0.00 1858.00 1087.86" xmlns="http://www.w3.org/2000/svg" xmlns:xlink="http://www.w3.org/1999/xlink">
<g id="graph0" class="graph" transform="scale(1 1) rotate(0) translate(4 1083.86)">
<title>G</title>
<polygon fill="white" stroke="none" points="-4,4 -4,-1083.86 1854,-1083.86 1854,4 -4,4"/>
<g id="clust1" class="cluster">
<title>cluster_node4</title>
<polygon fill="none" stroke="black" points="8,-8 8,-1015.86 1676,-1015.86 1676,-8 8,-8"/>
</g>
<g id="clust2" class="cluster">
<title>cluster_node91</title>
<polygon fill="none" stroke="black" points="1684,-747.86 1684,-1015.86 1842,-1015.86 1842,-747.86 1684,-747.86"/>
</g>
<!-- node0 -->
<g id="node1" class="node">
<title>node0</title>
<ellipse fill="none" stroke="black" cx="1524" cy="-1061.86" rx="72.52" ry="18"/>
<text text-anchor="middle" x="1524" y="-1056.44" font-family="Times New Roman,serif" font-size="14.00">Program (Prims)</text>
</g>
<!-- node4 -->
<g id="node2" class="node">
<title>node4</title>
<ellipse fill="none" stroke="black" cx="1223" cy="-989.86" rx="90.98" ry="18"/>
<text text-anchor="middle" x="1223" y="-984.44" font-family="Times New Roman,serif" font-size="14.00">Method (print_prims)</text>
</g>
<!-- node0&#45;&gt;node4 -->
<g id="edge1" class="edge">
<title>node0&#45;&gt;node4</title>
<path fill="none" stroke="black" d="M1472.26,-1048.83C1422.33,-1037.22 1346.44,-1019.57 1291.52,-1006.8"/>
<polygon fill="black" stroke="black" points="1292.48,-1003.43 1281.95,-1004.57 1290.9,-1010.25 1292.48,-1003.43"/>
</g>
<!-- node91 -->
<g id="node72" class="node">
<title>node91</title>
<ellipse fill="none" stroke="black" cx="1760" cy="-989.86" rx="65.53" ry="18"/>
<text text-anchor="middle" x="1760" y="-984.44" font-family="Times New Roman,serif" font-size="14.00">Method (main)</text>
</g>
<!-- node0&#45;&gt;node91 -->
<g id="edge79" class="edge">
<title>node0&#45;&gt;node91</title>
<path fill="none" stroke="black" d="M1570.5,-1047.74C1601.55,-1038.9 1643.29,-1026.89 1680,-1015.86 1688.82,-1013.21 1698.16,-1010.35 1707.24,-1007.53"/>
<polygon fill="black" stroke="black" points="1708.17,-1010.91 1716.67,-1004.59 1706.09,-1004.22 1708.17,-1010.91"/>
</g>
<!-- node5 -->
<g id="node3" class="node">
<title>node5</title>
<ellipse fill="none" stroke="black" cx="848" cy="-917.86" rx="32.6" ry="18"/>
<text text-anchor="middle" x="848" y="-912.44" font-family="Times New Roman,serif" font-size="14.00">Block</text>
</g>
<!-- node4&#45;&gt;node5 -->
<g id="edge2" class="edge">
<title>node4&#45;&gt;node5</title>
<path fill="none" stroke="black" d="M1158.54,-976.83C1081.49,-962.45 954.83,-938.8 889.63,-926.63"/>
<polygon fill="black" stroke="black" points="890.54,-923.24 880.07,-924.85 889.26,-930.12 890.54,-923.24"/>
</g>
<!-- node14 -->
<g id="node4" class="node">
<title>node14</title>
<ellipse fill="none" stroke="black" cx="384" cy="-845.86" rx="54.06" ry="18"/>
<text text-anchor="middle" x="384" y="-840.44" font-family="Times New Roman,serif" font-size="14.00">Assignment</text>
</g>
<!-- node5&#45;&gt;node14 -->
<g id="edge3" class="edge">
<title>node5&#45;&gt;node14</title>
<path fill="none" stroke="black" d="M816.84,-912.16C740.53,-900.65 543.31,-870.9 443.6,-855.85"/>
<polygon fill="black" stroke="black" points="444.42,-852.44 434.01,-854.41 443.38,-859.36 444.42,-852.44"/>
</g>
<!-- node19 -->
<g id="node11" class="node">
<title>node19</title>
<ellipse fill="none" stroke="black" cx="782" cy="-845.86" rx="54.06" ry="18"/>
<text text-anchor="middle" x="782" y="-840.44" font-family="Times New Roman,serif" font-size="14.00">Assignment</text>
</g>
<!-- node5&#45;&gt;node19 -->
<g id="edge10" class="edge">
<title>node5&#45;&gt;node19</title>
<path fill="none" stroke="black" d="M833.35,-901.33C825.13,-892.6 814.67,-881.52 805.35,-871.62"/>
<polygon fill="black" stroke="black" points="807.97,-869.3 798.56,-864.43 802.88,-874.11 807.97,-869.3"/>
</g>
<!-- node90 -->
<g id="node15" class="node">
<title>node90</title>
<ellipse fill="none" stroke="black" cx="914" cy="-845.86" rx="32.1" ry="18"/>
<text text-anchor="middle" x="914" y="-840.44" font-family="Times New Roman,serif" font-size="14.00">While</text>
</g>
<!-- node5&#45;&gt;node90 -->
<g id="edge14" class="edge">
<title>node5&#45;&gt;node90</title>
<path fill="none" stroke="black" d="M862.65,-901.33C871.19,-892.26 882.14,-880.65 891.74,-870.47"/>
<polygon fill="black" stroke="black" points="894.04,-873.13 898.36,-863.45 888.95,-868.33 894.04,-873.13"/>
</g>
<!-- node7 -->
<g id="node5" class="node">
<title>node7</title>
<ellipse fill="none" stroke="black" cx="151" cy="-773.86" rx="102.46" ry="18"/>
<text text-anchor="middle" x="151" y="-768.44" font-family="Times New Roman,serif" font-size="14.00">Designator (Kind: Local)</text>
</g>
<!-- node14&#45;&gt;node7 -->
<g id="edge4" class="edge">
<title>node14&#45;&gt;node7</title>
<path fill="none" stroke="black" d="M344.74,-833.07C308.43,-822.16 253.89,-805.77 211.93,-793.17"/>
<polygon fill="black" stroke="black" points="213.03,-789.84 202.45,-790.32 211.02,-796.55 213.03,-789.84"/>
</g>
<!-- node13 -->
<g id="node7" class="node">
<title>node13</title>
<ellipse fill="none" stroke="black" cx="384" cy="-773.86" rx="48.57" ry="18"/>
<text text-anchor="middle" x="384" y="-768.44" font-family="Times New Roman,serif" font-size="14.00">NewArray</text>
</g>
<!-- node14&#45;&gt;node13 -->
<g id="edge6" class="edge">
<title>node14&#45;&gt;node13</title>
<path fill="none" stroke="black" d="M384,-827.56C384,-820.27 384,-811.59 384,-803.4"/>
<polygon fill="black" stroke="black" points="387.5,-803.48 384,-793.48 380.5,-803.48 387.5,-803.48"/>
</g>
<!-- node6 -->
<g id="node6" class="node">
<title>node6</title>
<ellipse fill="none" stroke="black" cx="99" cy="-701.86" rx="83" ry="18"/>
<text text-anchor="middle" x="99" y="-696.44" font-family="Times New Roman,serif" font-size="14.00">Var (numbers [arr])</text>
</g>
<!-- node7&#45;&gt;node6 -->
<g id="edge5" class="edge">
<title>node7&#45;&gt;node6</title>
<path fill="none" stroke="black" d="M138.15,-755.56C132.23,-747.59 125.07,-737.96 118.51,-729.13"/>
<polygon fill="black" stroke="black" points="121.38,-727.12 112.61,-721.18 115.76,-731.3 121.38,-727.12"/>
</g>
<!-- node9 -->
<g id="node8" class="node">
<title>node9</title>
<ellipse fill="none" stroke="black" cx="248" cy="-701.86" rx="47.57" ry="18"/>
<text text-anchor="middle" x="248" y="-696.44" font-family="Times New Roman,serif" font-size="14.00">Type (int)</text>
</g>
<!-- node13&#45;&gt;node9 -->
<g id="edge7" class="edge">
<title>node13&#45;&gt;node9</title>
<path fill="none" stroke="black" d="M356.48,-758.7C336.11,-748.21 308.12,-733.81 285.68,-722.25"/>
<polygon fill="black" stroke="black" points="287.32,-719.16 276.83,-717.7 284.12,-725.39 287.32,-719.16"/>
</g>
<!-- node12 -->
<g id="node9" class="node">
<title>node12</title>
<ellipse fill="none" stroke="black" cx="416" cy="-701.86" rx="102.46" ry="18"/>
<text text-anchor="middle" x="416" y="-696.44" font-family="Times New Roman,serif" font-size="14.00">Designator (Kind: Local)</text>
</g>
<!-- node13&#45;&gt;node12 -->
<g id="edge8" class="edge">
<title>node13&#45;&gt;node12</title>
<path fill="none" stroke="black" d="M391.75,-755.92C395.23,-748.29 399.44,-739.09 403.36,-730.51"/>
<polygon fill="black" stroke="black" points="406.5,-732.06 407.47,-721.51 400.13,-729.15 406.5,-732.06"/>
</g>
<!-- node11 -->
<g id="node10" class="node">
<title>node11</title>
<ellipse fill="none" stroke="black" cx="416" cy="-629.86" rx="37.09" ry="18"/>
<text text-anchor="middle" x="416" y="-624.44" font-family="Times New Roman,serif" font-size="14.00">Var (n)</text>
</g>
<!-- node12&#45;&gt;node11 -->
<g id="edge9" class="edge">
<title>node12&#45;&gt;node11</title>
<path fill="none" stroke="black" d="M416,-683.56C416,-676.27 416,-667.59 416,-659.4"/>
<polygon fill="black" stroke="black" points="419.5,-659.48 416,-649.48 412.5,-659.48 419.5,-659.48"/>
</g>
<!-- node16 -->
<g id="node12" class="node">
<title>node16</title>
<ellipse fill="none" stroke="black" cx="594" cy="-773.86" rx="102.46" ry="18"/>
<text text-anchor="middle" x="594" y="-768.44" font-family="Times New Roman,serif" font-size="14.00">Designator (Kind: Local)</text>
</g>
<!-- node19&#45;&gt;node16 -->
<g id="edge11" class="edge">
<title>node19&#45;&gt;node16</title>
<path fill="none" stroke="black" d="M747.08,-831.86C718.94,-821.38 678.91,-806.48 646.84,-794.54"/>
<polygon fill="black" stroke="black" points="648.31,-791.35 637.72,-791.14 645.87,-797.91 648.31,-791.35"/>
</g>
<!-- node18 -->
<g id="node14" class="node">
<title>node18</title>
<ellipse fill="none" stroke="black" cx="782" cy="-773.86" rx="49.57" ry="18"/>
<text text-anchor="middle" x="782" y="-768.44" font-family="Times New Roman,serif" font-size="14.00">IntCon (0)</text>
</g>
<!-- node19&#45;&gt;node18 -->
<g id="edge13" class="edge">
<title>node19&#45;&gt;node18</title>
<path fill="none" stroke="black" d="M782,-827.56C782,-820.27 782,-811.59 782,-803.4"/>
<polygon fill="black" stroke="black" points="785.5,-803.48 782,-793.48 778.5,-803.48 785.5,-803.48"/>
</g>
<!-- node15 -->
<g id="node13" class="node">
<title>node15</title>
<ellipse fill="none" stroke="black" cx="571" cy="-701.86" rx="34.6" ry="18"/>
<text text-anchor="middle" x="571" y="-696.44" font-family="Times New Roman,serif" font-size="14.00">Var (i)</text>
</g>
<!-- node16&#45;&gt;node15 -->
<g id="edge12" class="edge">
<title>node16&#45;&gt;node15</title>
<path fill="none" stroke="black" d="M588.31,-755.56C585.86,-748.1 582.93,-739.18 580.19,-730.83"/>
<polygon fill="black" stroke="black" points="583.54,-729.81 577.09,-721.4 576.89,-732 583.54,-729.81"/>
</g>
<!-- node26 -->
<g id="node16" class="node">
<title>node26</title>
<ellipse fill="none" stroke="black" cx="914" cy="-773.86" rx="55.06" ry="18"/>
<text text-anchor="middle" x="914" y="-768.44" font-family="Times New Roman,serif" font-size="14.00">BinExpr (&lt;)</text>
</g>
<!-- node90&#45;&gt;node26 -->
<g id="edge15" class="edge">
<title>node90&#45;&gt;node26</title>
<path fill="none" stroke="black" d="M914,-827.56C914,-820.27 914,-811.59 914,-803.4"/>
<polygon fill="black" stroke="black" points="917.5,-803.48 914,-793.48 910.5,-803.48 917.5,-803.48"/>
</g>
<!-- node27 -->
<g id="node21" class="node">
<title>node27</title>
<ellipse fill="none" stroke="black" cx="1096" cy="-773.86" rx="32.6" ry="18"/>
<text text-anchor="middle" x="1096" y="-768.44" font-family="Times New Roman,serif" font-size="14.00">Block</text>
</g>
<!-- node90&#45;&gt;node27 -->
<g id="edge20" class="edge">
<title>node90&#45;&gt;node27</title>
<path fill="none" stroke="black" d="M940.08,-834.83C971.34,-822.81 1023.94,-802.58 1059.3,-788.98"/>
<polygon fill="black" stroke="black" points="1060.19,-792.39 1068.26,-785.53 1057.67,-785.85 1060.19,-792.39"/>
</g>
<!-- node22 -->
<g id="node17" class="node">
<title>node22</title>
<ellipse fill="none" stroke="black" cx="726" cy="-701.86" rx="102.46" ry="18"/>
<text text-anchor="middle" x="726" y="-696.44" font-family="Times New Roman,serif" font-size="14.00">Designator (Kind: Local)</text>
</g>
<!-- node26&#45;&gt;node22 -->
<g id="edge16" class="edge">
<title>node26&#45;&gt;node22</title>
<path fill="none" stroke="black" d="M878.64,-759.69C850.54,-749.23 810.81,-734.44 778.93,-722.57"/>
<polygon fill="black" stroke="black" points="780.45,-719.4 769.86,-719.19 778.01,-725.96 780.45,-719.4"/>
</g>
<!-- node25 -->
<g id="node19" class="node">
<title>node25</title>
<ellipse fill="none" stroke="black" cx="949" cy="-701.86" rx="102.46" ry="18"/>
<text text-anchor="middle" x="949" y="-696.44" font-family="Times New Roman,serif" font-size="14.00">Designator (Kind: Local)</text>
</g>
<!-- node26&#45;&gt;node25 -->
<g id="edge18" class="edge">
<title>node26&#45;&gt;node25</title>
<path fill="none" stroke="black" d="M922.47,-755.92C926.33,-748.21 930.99,-738.89 935.32,-730.23"/>
<polygon fill="black" stroke="black" points="938.34,-732 939.69,-721.49 932.08,-728.87 938.34,-732"/>
</g>
<!-- node21 -->
<g id="node18" class="node">
<title>node21</title>
<ellipse fill="none" stroke="black" cx="726" cy="-629.86" rx="34.6" ry="18"/>
<text text-anchor="middle" x="726" y="-624.44" font-family="Times New Roman,serif" font-size="14.00">Var (i)</text>
</g>
<!-- node22&#45;&gt;node21 -->
<g id="edge17" class="edge">
<title>node22&#45;&gt;node21</title>
<path fill="none" stroke="black" d="M726,-683.56C726,-676.27 726,-667.59 726,-659.4"/>
<polygon fill="black" stroke="black" points="729.5,-659.48 726,-649.48 722.5,-659.48 729.5,-659.48"/>
</g>
<!-- node24 -->
<g id="node20" class="node">
<title>node24</title>
<ellipse fill="none" stroke="black" cx="832" cy="-629.86" rx="37.09" ry="18"/>
<text text-anchor="middle" x="832" y="-624.44" font-family="Times New Roman,serif" font-size="14.00">Var (n)</text>
</g>
<!-- node25&#45;&gt;node24 -->
<g id="edge19" class="edge">
<title>node25&#45;&gt;node24</title>
<path fill="none" stroke="black" d="M920.98,-684.09C903.86,-673.86 881.92,-660.73 864.11,-650.07"/>
<polygon fill="black" stroke="black" points="866.38,-647.35 856,-645.22 862.78,-653.36 866.38,-647.35"/>
</g>
<!-- node84 -->
<g id="node22" class="node">
<title>node84</title>
<ellipse fill="none" stroke="black" cx="1096" cy="-701.86" rx="27" ry="18"/>
<text text-anchor="middle" x="1096" y="-696.44" font-family="Times New Roman,serif" font-size="14.00">If</text>
</g>
<!-- node27&#45;&gt;node84 -->
<g id="edge21" class="edge">
<title>node27&#45;&gt;node84</title>
<path fill="none" stroke="black" d="M1096,-755.56C1096,-748.27 1096,-739.59 1096,-731.4"/>
<polygon fill="black" stroke="black" points="1099.5,-731.48 1096,-721.48 1092.5,-731.48 1099.5,-731.48"/>
</g>
<!-- node89 -->
<g id="node67" class="node">
<title>node89</title>
<ellipse fill="none" stroke="black" cx="1411" cy="-701.86" rx="54.06" ry="18"/>
<text text-anchor="middle" x="1411" y="-696.44" font-family="Times New Roman,serif" font-size="14.00">Assignment</text>
</g>
<!-- node27&#45;&gt;node89 -->
<g id="edge72" class="edge">
<title>node27&#45;&gt;node89</title>
<path fill="none" stroke="black" d="M1125.92,-766.21C1178.62,-754.5 1288.73,-730.03 1355.63,-715.17"/>
<polygon fill="black" stroke="black" points="1356.31,-718.6 1365.31,-713.02 1354.79,-711.77 1356.31,-718.6"/>
</g>
<!-- node44 -->
<g id="node23" class="node">
<title>node44</title>
<ellipse fill="none" stroke="black" cx="952" cy="-629.86" rx="64.54" ry="18"/>
<text text-anchor="middle" x="952" y="-624.44" font-family="Times New Roman,serif" font-size="14.00">BinExpr (&amp;&amp;)</text>
</g>
<!-- node84&#45;&gt;node44 -->
<g id="edge22" class="edge">
<title>node84&#45;&gt;node44</title>
<path fill="none" stroke="black" d="M1074.44,-690.38C1053.04,-679.98 1019.69,-663.76 993.19,-650.88"/>
<polygon fill="black" stroke="black" points="994.93,-647.84 984.41,-646.62 991.87,-654.14 994.93,-647.84"/>
</g>
<!-- node45 -->
<g id="node35" class="node">
<title>node45</title>
<ellipse fill="none" stroke="black" cx="1089" cy="-629.86" rx="32.6" ry="18"/>
<text text-anchor="middle" x="1089" y="-624.44" font-family="Times New Roman,serif" font-size="14.00">Block</text>
</g>
<!-- node84&#45;&gt;node45 -->
<g id="edge34" class="edge">
<title>node84&#45;&gt;node45</title>
<path fill="none" stroke="black" d="M1094.27,-683.56C1093.54,-676.27 1092.67,-667.59 1091.85,-659.4"/>
<polygon fill="black" stroke="black" points="1095.34,-659.07 1090.86,-649.47 1088.37,-659.77 1095.34,-659.07"/>
</g>
<!-- node33 -->
<g id="node24" class="node">
<title>node33</title>
<ellipse fill="none" stroke="black" cx="236" cy="-557.86" rx="55.06" ry="18"/>
<text text-anchor="middle" x="236" y="-552.44" font-family="Times New Roman,serif" font-size="14.00">BinExpr (&lt;)</text>
</g>
<!-- node44&#45;&gt;node33 -->
<g id="edge23" class="edge">
<title>node44&#45;&gt;node33</title>
<path fill="none" stroke="black" d="M905.22,-617.05C896.23,-615.08 886.86,-613.24 878,-611.86 849.78,-607.48 457.87,-576.35 300.61,-563.94"/>
<polygon fill="black" stroke="black" points="301,-560.46 290.76,-563.17 300.45,-567.44 301,-560.46"/>
</g>
<!-- node43 -->
<g id="node28" class="node">
<title>node43</title>
<ellipse fill="none" stroke="black" cx="521" cy="-557.86" rx="60.54" ry="18"/>
<text text-anchor="middle" x="521" y="-552.44" font-family="Times New Roman,serif" font-size="14.00">BinExpr (==)</text>
</g>
<!-- node44&#45;&gt;node43 -->
<g id="edge27" class="edge">
<title>node44&#45;&gt;node43</title>
<path fill="none" stroke="black" d="M904.76,-617.32C895.9,-615.35 886.69,-613.43 878,-611.86 758.44,-590.24 726.88,-595.65 607,-575.86 598.45,-574.45 589.44,-572.82 580.61,-571.15"/>
<polygon fill="black" stroke="black" points="581.54,-567.76 571.05,-569.3 580.21,-574.64 581.54,-567.76"/>
</g>
<!-- node29 -->
<g id="node25" class="node">
<title>node29</title>
<ellipse fill="none" stroke="black" cx="66" cy="-475.93" rx="49.57" ry="18"/>
<text text-anchor="middle" x="66" y="-470.51" font-family="Times New Roman,serif" font-size="14.00">IntCon (1)</text>
</g>
<!-- node33&#45;&gt;node29 -->
<g id="edge24" class="edge">
<title>node33&#45;&gt;node29</title>
<path fill="none" stroke="black" d="M205.61,-542.57C177.76,-529.48 136.34,-510 105.85,-495.67"/>
<polygon fill="black" stroke="black" points="107.47,-492.56 96.93,-491.47 104.49,-498.9 107.47,-492.56"/>
</g>
<!-- node32 -->
<g id="node26" class="node">
<title>node32</title>
<ellipse fill="none" stroke="black" cx="236" cy="-475.93" rx="102.46" ry="18"/>
<text text-anchor="middle" x="236" y="-470.51" font-family="Times New Roman,serif" font-size="14.00">Designator (Kind: Local)</text>
</g>
<!-- node33&#45;&gt;node32 -->
<g id="edge25" class="edge">
<title>node33&#45;&gt;node32</title>
<path fill="none" stroke="black" d="M236,-539.52C236,-529.57 236,-516.83 236,-505.44"/>
<polygon fill="black" stroke="black" points="239.5,-505.75 236,-495.75 232.5,-505.75 239.5,-505.75"/>
</g>
<!-- node31 -->
<g id="node27" class="node">
<title>node31</title>
<ellipse fill="none" stroke="black" cx="236" cy="-394" rx="34.6" ry="18"/>
<text text-anchor="middle" x="236" y="-388.57" font-family="Times New Roman,serif" font-size="14.00">Var (i)</text>
</g>
<!-- node32&#45;&gt;node31 -->
<g id="edge26" class="edge">
<title>node32&#45;&gt;node31</title>
<path fill="none" stroke="black" d="M236,-457.59C236,-447.64 236,-434.9 236,-423.51"/>
<polygon fill="black" stroke="black" points="239.5,-423.82 236,-413.82 232.5,-423.82 239.5,-423.82"/>
</g>
<!-- node42 -->
<g id="node29" class="node">
<title>node42</title>
<ellipse fill="none" stroke="black" cx="405" cy="-475.93" rx="48.57" ry="18"/>
<text text-anchor="middle" x="405" y="-470.51" font-family="Times New Roman,serif" font-size="14.00">LoadElem</text>
</g>
<!-- node43&#45;&gt;node42 -->
<g id="edge28" class="edge">
<title>node43&#45;&gt;node42</title>
<path fill="none" stroke="black" d="M497.8,-540.88C480.27,-528.8 456,-512.07 436.68,-498.76"/>
<polygon fill="black" stroke="black" points="438.83,-495.99 428.61,-493.2 434.86,-501.76 438.83,-495.99"/>
</g>
<!-- node41 -->
<g id="node34" class="node">
<title>node41</title>
<ellipse fill="none" stroke="black" cx="521" cy="-475.93" rx="49.57" ry="18"/>
<text text-anchor="middle" x="521" y="-470.51" font-family="Times New Roman,serif" font-size="14.00">IntCon (0)</text>
</g>
<!-- node43&#45;&gt;node41 -->
<g id="edge33" class="edge">
<title>node43&#45;&gt;node41</title>
<path fill="none" stroke="black" d="M521,-539.52C521,-529.57 521,-516.83 521,-505.44"/>
<polygon fill="black" stroke="black" points="524.5,-505.75 521,-495.75 517.5,-505.75 524.5,-505.75"/>
</g>
<!-- node36 -->
<g id="node30" class="node">
<title>node36</title>
<ellipse fill="none" stroke="black" cx="405" cy="-394" rx="99.97" ry="18"/>
<text text-anchor="middle" x="405" y="-388.57" font-family="Times New Roman,serif" font-size="14.00">Designator (Kind: Elem)</text>
</g>
<!-- node42&#45;&gt;node36 -->
<g id="edge29" class="edge">
<title>node42&#45;&gt;node36</title>
<path fill="none" stroke="black" d="M405,-457.59C405,-447.64 405,-434.9 405,-423.51"/>
<polygon fill="black" stroke="black" points="408.5,-423.82 405,-413.82 401.5,-423.82 408.5,-423.82"/>
</g>
<!-- node35 -->
<g id="node31" class="node">
<title>node35</title>
<ellipse fill="none" stroke="black" cx="304" cy="-322" rx="83" ry="18"/>
<text text-anchor="middle" x="304" y="-316.57" font-family="Times New Roman,serif" font-size="14.00">Var (numbers [arr])</text>
</g>
<!-- node36&#45;&gt;node35 -->
<g id="edge30" class="edge">
<title>node36&#45;&gt;node35</title>
<path fill="none" stroke="black" d="M380.81,-376.23C367.82,-367.23 351.6,-355.99 337.42,-346.16"/>
<polygon fill="black" stroke="black" points="339.45,-343.31 329.24,-340.49 335.46,-349.07 339.45,-343.31"/>
</g>
<!-- node39 -->
<g id="node32" class="node">
<title>node39</title>
<ellipse fill="none" stroke="black" cx="507" cy="-322" rx="102.46" ry="18"/>
<text text-anchor="middle" x="507" y="-316.57" font-family="Times New Roman,serif" font-size="14.00">Designator (Kind: Local)</text>
</g>
<!-- node36&#45;&gt;node39 -->
<g id="edge31" class="edge">
<title>node36&#45;&gt;node39</title>
<path fill="none" stroke="black" d="M429.43,-376.23C442.46,-367.29 458.69,-356.15 472.93,-346.38"/>
<polygon fill="black" stroke="black" points="474.9,-349.27 481.17,-340.73 470.94,-343.5 474.9,-349.27"/>
</g>
<!-- node38 -->
<g id="node33" class="node">
<title>node38</title>
<ellipse fill="none" stroke="black" cx="507" cy="-250" rx="34.6" ry="18"/>
<text text-anchor="middle" x="507" y="-244.57" font-family="Times New Roman,serif" font-size="14.00">Var (i)</text>
</g>
<!-- node39&#45;&gt;node38 -->
<g id="edge32" class="edge">
<title>node39&#45;&gt;node38</title>
<path fill="none" stroke="black" d="M507,-303.7C507,-296.41 507,-287.73 507,-279.54"/>
<polygon fill="black" stroke="black" points="510.5,-279.62 507,-269.62 503.5,-279.62 510.5,-279.62"/>
</g>
<!-- node49 -->
<g id="node36" class="node">
<title>node49</title>
<ellipse fill="none" stroke="black" cx="698" cy="-557.86" rx="82" ry="18"/>
<text text-anchor="middle" x="698" y="-552.44" font-family="Times New Roman,serif" font-size="14.00">IntPrint (width = 0)</text>
</g>
<!-- node45&#45;&gt;node49 -->
<g id="edge35" class="edge">
<title>node45&#45;&gt;node49</title>
<path fill="none" stroke="black" d="M1060.61,-620.53C1049.83,-617.55 1037.41,-614.32 1026,-611.86 979.55,-601.87 857.04,-582.79 775.6,-570.45"/>
<polygon fill="black" stroke="black" points="776.31,-567.02 765.89,-568.99 775.26,-573.94 776.31,-567.02"/>
</g>
<!-- node52 -->
<g id="node39" class="node">
<title>node52</title>
<ellipse fill="none" stroke="black" cx="914" cy="-557.86" rx="89.99" ry="18"/>
<text text-anchor="middle" x="914" y="-552.44" font-family="Times New Roman,serif" font-size="14.00">CharPrint (width = 0)</text>
</g>
<!-- node45&#45;&gt;node52 -->
<g id="edge38" class="edge">
<title>node45&#45;&gt;node52</title>
<path fill="none" stroke="black" d="M1063.18,-618.53C1037.04,-608.08 995.96,-591.65 963.52,-578.67"/>
<polygon fill="black" stroke="black" points="964.88,-575.44 954.29,-574.98 962.28,-581.94 964.88,-575.44"/>
</g>
<!-- node58 -->
<g id="node41" class="node">
<title>node58</title>
<ellipse fill="none" stroke="black" cx="1089" cy="-557.86" rx="54.06" ry="18"/>
<text text-anchor="middle" x="1089" y="-552.44" font-family="Times New Roman,serif" font-size="14.00">Assignment</text>
</g>
<!-- node45&#45;&gt;node58 -->
<g id="edge40" class="edge">
<title>node45&#45;&gt;node58</title>
<path fill="none" stroke="black" d="M1089,-611.56C1089,-604.27 1089,-595.59 1089,-587.4"/>
<polygon fill="black" stroke="black" points="1092.5,-587.48 1089,-577.48 1085.5,-587.48 1092.5,-587.48"/>
</g>
<!-- node83 -->
<g id="node46" class="node">
<title>node83</title>
<ellipse fill="none" stroke="black" cx="1295" cy="-557.86" rx="32.1" ry="18"/>
<text text-anchor="middle" x="1295" y="-552.44" font-family="Times New Roman,serif" font-size="14.00">While</text>
</g>
<!-- node45&#45;&gt;node83 -->
<g id="edge45" class="edge">
<title>node45&#45;&gt;node83</title>
<path fill="none" stroke="black" d="M1116.36,-619.57C1152.47,-607.29 1216.24,-585.63 1257.01,-571.77"/>
<polygon fill="black" stroke="black" points="1258.08,-575.1 1266.43,-568.57 1255.83,-568.47 1258.08,-575.1"/>
</g>
<!-- node48 -->
<g id="node37" class="node">
<title>node48</title>
<ellipse fill="none" stroke="black" cx="691" cy="-475.93" rx="102.46" ry="18"/>
<text text-anchor="middle" x="691" y="-470.51" font-family="Times New Roman,serif" font-size="14.00">Designator (Kind: Local)</text>
</g>
<!-- node49&#45;&gt;node48 -->
<g id="edge36" class="edge">
<title>node49&#45;&gt;node48</title>
<path fill="none" stroke="black" d="M696.48,-539.52C695.61,-529.57 694.49,-516.83 693.5,-505.44"/>
<polygon fill="black" stroke="black" points="697.01,-505.4 692.65,-495.75 690.03,-506.02 697.01,-505.4"/>
</g>
<!-- node47 -->
<g id="node38" class="node">
<title>node47</title>
<ellipse fill="none" stroke="black" cx="691" cy="-394" rx="34.6" ry="18"/>
<text text-anchor="middle" x="691" y="-388.57" font-family="Times New Roman,serif" font-size="14.00">Var (i)</text>
</g>
<!-- node48&#45;&gt;node47 -->
<g id="edge37" class="edge">
<title>node48&#45;&gt;node47</title>
<path fill="none" stroke="black" d="M691,-457.59C691,-447.64 691,-434.9 691,-423.51"/>
<polygon fill="black" stroke="black" points="694.5,-423.82 691,-413.82 687.5,-423.82 694.5,-423.82"/>
</g>
<!-- node51 -->
<g id="node40" class="node">
<title>node51</title>
<ellipse fill="none" stroke="black" cx="867" cy="-475.93" rx="55.33" ry="27.93"/>
<text text-anchor="middle" x="867" y="-478.38" font-family="Times New Roman,serif" font-size="14.00">CharCon (&#39;</text>
<text text-anchor="middle" x="867" y="-462.63" font-family="Times New Roman,serif" font-size="14.00">&#39;)</text>
</g>
<!-- node52&#45;&gt;node51 -->
<g id="edge39" class="edge">
<title>node52&#45;&gt;node51</title>
<path fill="none" stroke="black" d="M903.8,-539.52C899.2,-531.69 893.59,-522.15 888.14,-512.89"/>
<polygon fill="black" stroke="black" points="891.21,-511.21 883.13,-504.36 885.18,-514.75 891.21,-511.21"/>
</g>
<!-- node54 -->
<g id="node42" class="node">
<title>node54</title>
<ellipse fill="none" stroke="black" cx="1043" cy="-475.93" rx="102.46" ry="18"/>
<text text-anchor="middle" x="1043" y="-470.51" font-family="Times New Roman,serif" font-size="14.00">Designator (Kind: Local)</text>
</g>
<!-- node58&#45;&gt;node54 -->
<g id="edge41" class="edge">
<title>node58&#45;&gt;node54</title>
<path fill="none" stroke="black" d="M1079.24,-539.91C1073.25,-529.49 1065.43,-515.9 1058.59,-504.02"/>
<polygon fill="black" stroke="black" points="1061.68,-502.37 1053.65,-495.44 1055.61,-505.86 1061.68,-502.37"/>
</g>
<!-- node57 -->
<g id="node44" class="node">
<title>node57</title>
<ellipse fill="none" stroke="black" cx="1266" cy="-475.93" rx="102.46" ry="18"/>
<text text-anchor="middle" x="1266" y="-470.51" font-family="Times New Roman,serif" font-size="14.00">Designator (Kind: Local)</text>
</g>
<!-- node58&#45;&gt;node57 -->
<g id="edge43" class="edge">
<title>node58&#45;&gt;node57</title>
<path fill="none" stroke="black" d="M1120.24,-542.76C1147.79,-530.31 1188.32,-512.01 1219.65,-497.86"/>
<polygon fill="black" stroke="black" points="1220.84,-501.17 1228.51,-493.86 1217.96,-494.79 1220.84,-501.17"/>
</g>
<!-- node53 -->
<g id="node43" class="node">
<title>node53</title>
<ellipse fill="none" stroke="black" cx="782" cy="-394" rx="34.6" ry="18"/>
<text text-anchor="middle" x="782" y="-388.57" font-family="Times New Roman,serif" font-size="14.00">Var (j)</text>
</g>
<!-- node54&#45;&gt;node53 -->
<g id="edge42" class="edge">
<title>node54&#45;&gt;node53</title>
<path fill="none" stroke="black" d="M987.45,-460.47C943.12,-448.55 879.62,-430.63 825,-412 823.17,-411.38 821.31,-410.72 819.43,-410.04"/>
<polygon fill="black" stroke="black" points="820.7,-406.78 810.11,-406.54 818.24,-413.33 820.7,-406.78"/>
</g>
<!-- node56 -->
<g id="node45" class="node">
<title>node56</title>
<ellipse fill="none" stroke="black" cx="869" cy="-394" rx="34.6" ry="18"/>
<text text-anchor="middle" x="869" y="-388.57" font-family="Times New Roman,serif" font-size="14.00">Var (i)</text>
</g>
<!-- node57&#45;&gt;node56 -->
<g id="edge44" class="edge">
<title>node57&#45;&gt;node56</title>
<path fill="none" stroke="black" d="M1210.09,-460.47C1192.24,-456.13 1172.35,-451.57 1154,-448 1047.69,-427.32 1017.7,-439.68 913,-412 910.71,-411.39 908.38,-410.71 906.04,-409.97"/>
<polygon fill="black" stroke="black" points="907.24,-406.68 896.64,-406.71 904.94,-413.29 907.24,-406.68"/>
</g>
<!-- node65 -->
<g id="node47" class="node">
<title>node65</title>
<ellipse fill="none" stroke="black" cx="1442" cy="-475.93" rx="55.06" ry="18"/>
<text text-anchor="middle" x="1442" y="-470.51" font-family="Times New Roman,serif" font-size="14.00">BinExpr (&lt;)</text>
</g>
<!-- node83&#45;&gt;node65 -->
<g id="edge46" class="edge">
<title>node83&#45;&gt;node65</title>
<path fill="none" stroke="black" d="M1317.33,-544.72C1340.4,-532.17 1376.84,-512.36 1404.37,-497.39"/>
<polygon fill="black" stroke="black" points="1406,-500.49 1413.11,-492.64 1402.66,-494.34 1406,-500.49"/>
</g>
<!-- node66 -->
<g id="node52" class="node">
<title>node66</title>
<ellipse fill="none" stroke="black" cx="1548" cy="-475.93" rx="32.6" ry="18"/>
<text text-anchor="middle" x="1548" y="-470.51" font-family="Times New Roman,serif" font-size="14.00">Block</text>
</g>
<!-- node83&#45;&gt;node66 -->
<g id="edge51" class="edge">
<title>node83&#45;&gt;node66</title>
<path fill="none" stroke="black" d="M1319.61,-546.06C1325.26,-543.82 1331.28,-541.61 1337,-539.86 1410.43,-517.37 1434.97,-533.06 1506,-503.86 1510.51,-502.01 1515.06,-499.67 1519.42,-497.15"/>
<polygon fill="black" stroke="black" points="1521.23,-500.14 1527.86,-491.88 1517.53,-494.21 1521.23,-500.14"/>
</g>
<!-- node61 -->
<g id="node48" class="node">
<title>node61</title>
<ellipse fill="none" stroke="black" cx="1024" cy="-394" rx="102.46" ry="18"/>
<text text-anchor="middle" x="1024" y="-388.57" font-family="Times New Roman,serif" font-size="14.00">Designator (Kind: Local)</text>
</g>
<!-- node65&#45;&gt;node61 -->
<g id="edge47" class="edge">
<title>node65&#45;&gt;node61</title>
<path fill="none" stroke="black" d="M1411.79,-460.61C1401.01,-455.99 1388.65,-451.23 1377,-448 1272.64,-419.06 1243.09,-428.13 1136,-412 1127.82,-410.77 1119.3,-409.48 1110.78,-408.19"/>
<polygon fill="black" stroke="black" points="1111.51,-404.76 1101.1,-406.73 1110.46,-411.68 1111.51,-404.76"/>
</g>
<!-- node64 -->
<g id="node50" class="node">
<title>node64</title>
<ellipse fill="none" stroke="black" cx="1247" cy="-394" rx="102.46" ry="18"/>
<text text-anchor="middle" x="1247" y="-388.57" font-family="Times New Roman,serif" font-size="14.00">Designator (Kind: Local)</text>
</g>
<!-- node65&#45;&gt;node64 -->
<g id="edge49" class="edge">
<title>node65&#45;&gt;node64</title>
<path fill="none" stroke="black" d="M1408.95,-461.19C1398.71,-456.95 1387.39,-452.27 1377,-448 1350.59,-437.14 1321.12,-425.12 1296.93,-415.28"/>
<polygon fill="black" stroke="black" points="1298.55,-412.16 1287.97,-411.63 1295.91,-418.64 1298.55,-412.16"/>
</g>
<!-- node60 -->
<g id="node49" class="node">
<title>node60</title>
<ellipse fill="none" stroke="black" cx="843" cy="-322" rx="34.6" ry="18"/>
<text text-anchor="middle" x="843" y="-316.57" font-family="Times New Roman,serif" font-size="14.00">Var (j)</text>
</g>
<!-- node61&#45;&gt;node60 -->
<g id="edge48" class="edge">
<title>node61&#45;&gt;node60</title>
<path fill="none" stroke="black" d="M982.93,-377.12C952.18,-365.22 910.45,-349.09 880.58,-337.53"/>
<polygon fill="black" stroke="black" points="882.16,-334.39 871.57,-334.05 879.63,-340.92 882.16,-334.39"/>
</g>
<!-- node63 -->
<g id="node51" class="node">
<title>node63</title>
<ellipse fill="none" stroke="black" cx="933" cy="-322" rx="37.09" ry="18"/>
<text text-anchor="middle" x="933" y="-316.57" font-family="Times New Roman,serif" font-size="14.00">Var (n)</text>
</g>
<!-- node64&#45;&gt;node63 -->
<g id="edge50" class="edge">
<title>node64&#45;&gt;node63</title>
<path fill="none" stroke="black" d="M1174.73,-380.91C1121.58,-371.42 1047.8,-356.99 984,-340 980.44,-339.05 976.76,-337.99 973.09,-336.87"/>
<polygon fill="black" stroke="black" points="974.24,-333.57 963.65,-333.88 972.12,-340.24 974.24,-333.57"/>
</g>
<!-- node75 -->
<g id="node53" class="node">
<title>node75</title>
<ellipse fill="none" stroke="black" cx="1422" cy="-394" rx="54.06" ry="18"/>
<text text-anchor="middle" x="1422" y="-388.57" font-family="Times New Roman,serif" font-size="14.00">Assignment</text>
</g>
<!-- node66&#45;&gt;node75 -->
<g id="edge52" class="edge">
<title>node66&#45;&gt;node75</title>
<path fill="none" stroke="black" d="M1527.51,-461.75C1520.68,-457.37 1513.02,-452.46 1506,-448 1489.65,-437.6 1471.47,-426.12 1456.21,-416.51"/>
<polygon fill="black" stroke="black" points="1458.26,-413.66 1447.94,-411.3 1454.53,-419.59 1458.26,-413.66"/>
</g>
<!-- node82 -->
<g id="node61" class="node">
<title>node82</title>
<ellipse fill="none" stroke="black" cx="1548" cy="-394" rx="54.06" ry="18"/>
<text text-anchor="middle" x="1548" y="-388.57" font-family="Times New Roman,serif" font-size="14.00">Assignment</text>
</g>
<!-- node66&#45;&gt;node82 -->
<g id="edge64" class="edge">
<title>node66&#45;&gt;node82</title>
<path fill="none" stroke="black" d="M1548,-457.59C1548,-447.64 1548,-434.9 1548,-423.51"/>
<polygon fill="black" stroke="black" points="1551.5,-423.82 1548,-413.82 1544.5,-423.82 1551.5,-423.82"/>
</g>
<!-- node68 -->
<g id="node54" class="node">
<title>node68</title>
<ellipse fill="none" stroke="black" cx="1023" cy="-178" rx="99.97" ry="18"/>
<text text-anchor="middle" x="1023" y="-172.57" font-family="Times New Roman,serif" font-size="14.00">Designator (Kind: Elem)</text>
</g>
<!-- node75&#45;&gt;node68 -->
<g id="edge53" class="edge">
<title>node75&#45;&gt;node68</title>
<path fill="none" stroke="black" d="M1381.88,-381.58C1374,-379.56 1365.77,-377.59 1358,-376 1248.45,-353.61 1213.59,-379.55 1109,-340 1054.35,-319.33 1026.79,-319.4 999,-268 988.57,-248.7 996.19,-224.55 1005.52,-206.27"/>
<polygon fill="black" stroke="black" points="1008.55,-208.04 1010.36,-197.6 1002.43,-204.63 1008.55,-208.04"/>
</g>
<!-- node74 -->
<g id="node58" class="node">
<title>node74</title>
<ellipse fill="none" stroke="black" cx="1173" cy="-322" rx="55.06" ry="18"/>
<text text-anchor="middle" x="1173" y="-316.57" font-family="Times New Roman,serif" font-size="14.00">BinExpr (+)</text>
</g>
<!-- node75&#45;&gt;node74 -->
<g id="edge57" class="edge">
<title>node75&#45;&gt;node74</title>
<path fill="none" stroke="black" d="M1381.72,-381.68C1338.99,-369.66 1271.36,-350.65 1224.72,-337.54"/>
<polygon fill="black" stroke="black" points="1225.67,-334.17 1215.1,-334.83 1223.78,-340.91 1225.67,-334.17"/>
</g>
<!-- node67 -->
<g id="node55" class="node">
<title>node67</title>
<ellipse fill="none" stroke="black" cx="921" cy="-106" rx="83" ry="18"/>
<text text-anchor="middle" x="921" y="-100.58" font-family="Times New Roman,serif" font-size="14.00">Var (numbers [arr])</text>
</g>
<!-- node68&#45;&gt;node67 -->
<g id="edge54" class="edge">
<title>node68&#45;&gt;node67</title>
<path fill="none" stroke="black" d="M992.99,-160.41C978.99,-151.48 962.52,-140.3 948.81,-130.49"/>
<polygon fill="black" stroke="black" points="951.2,-127.9 941.05,-124.85 947.08,-133.56 951.2,-127.9"/>
</g>
<!-- node68&#45;&gt;node67 -->
<g id="edge60" class="edge">
<title>node68&#45;&gt;node67</title>
<path fill="none" stroke="black" d="M1004.19,-160.05C991.6,-150.74 974.75,-139.07 959.46,-129.06"/>
<polygon fill="black" stroke="black" points="961.76,-126.38 951.47,-123.89 957.96,-132.26 961.76,-126.38"/>
</g>
<!-- node71 -->
<g id="node56" class="node">
<title>node71</title>
<ellipse fill="none" stroke="black" cx="1124" cy="-106" rx="102.46" ry="18"/>
<text text-anchor="middle" x="1124" y="-100.58" font-family="Times New Roman,serif" font-size="14.00">Designator (Kind: Local)</text>
</g>
<!-- node68&#45;&gt;node71 -->
<g id="edge55" class="edge">
<title>node68&#45;&gt;node71</title>
<path fill="none" stroke="black" d="M1041.57,-160.05C1053.73,-150.96 1069.92,-139.63 1084.77,-129.77"/>
<polygon fill="black" stroke="black" points="1086.57,-132.78 1093.02,-124.38 1082.74,-126.92 1086.57,-132.78"/>
</g>
<!-- node68&#45;&gt;node71 -->
<g id="edge61" class="edge">
<title>node68&#45;&gt;node71</title>
<path fill="none" stroke="black" d="M1052.78,-160.41C1066.64,-151.48 1082.95,-140.3 1096.52,-130.49"/>
<polygon fill="black" stroke="black" points="1098.21,-133.59 1104.19,-124.85 1094.06,-127.95 1098.21,-133.59"/>
</g>
<!-- node70 -->
<g id="node57" class="node">
<title>node70</title>
<ellipse fill="none" stroke="black" cx="1124" cy="-34" rx="34.6" ry="18"/>
<text text-anchor="middle" x="1124" y="-28.57" font-family="Times New Roman,serif" font-size="14.00">Var (j)</text>
</g>
<!-- node71&#45;&gt;node70 -->
<g id="edge56" class="edge">
<title>node71&#45;&gt;node70</title>
<path fill="none" stroke="black" d="M1118.08,-87.7C1117.33,-80.41 1117.09,-71.73 1117.35,-63.54"/>
<polygon fill="black" stroke="black" points="1120.84,-63.82 1118.01,-53.61 1113.86,-63.36 1120.84,-63.82"/>
</g>
<!-- node71&#45;&gt;node70 -->
<g id="edge62" class="edge">
<title>node71&#45;&gt;node70</title>
<path fill="none" stroke="black" d="M1129.92,-87.7C1130.67,-80.41 1130.91,-71.73 1130.65,-63.54"/>
<polygon fill="black" stroke="black" points="1134.14,-63.36 1129.99,-53.61 1127.16,-63.82 1134.14,-63.36"/>
</g>
<!-- node72 -->
<g id="node59" class="node">
<title>node72</title>
<ellipse fill="none" stroke="black" cx="1057" cy="-250" rx="48.57" ry="18"/>
<text text-anchor="middle" x="1057" y="-244.57" font-family="Times New Roman,serif" font-size="14.00">LoadElem</text>
</g>
<!-- node74&#45;&gt;node72 -->
<g id="edge58" class="edge">
<title>node74&#45;&gt;node72</title>
<path fill="none" stroke="black" d="M1147.54,-305.64C1131.08,-295.7 1109.43,-282.64 1091.44,-271.78"/>
<polygon fill="black" stroke="black" points="1093.27,-268.8 1082.9,-266.63 1089.65,-274.79 1093.27,-268.8"/>
</g>
<!-- node73 -->
<g id="node60" class="node">
<title>node73</title>
<ellipse fill="none" stroke="black" cx="1173" cy="-250" rx="49.57" ry="18"/>
<text text-anchor="middle" x="1173" y="-244.57" font-family="Times New Roman,serif" font-size="14.00">IntCon (1)</text>
</g>
<!-- node74&#45;&gt;node73 -->
<g id="edge63" class="edge">
<title>node74&#45;&gt;node73</title>
<path fill="none" stroke="black" d="M1173,-303.7C1173,-296.41 1173,-287.73 1173,-279.54"/>
<polygon fill="black" stroke="black" points="1176.5,-279.62 1173,-269.62 1169.5,-279.62 1176.5,-279.62"/>
</g>
<!-- node72&#45;&gt;node68 -->
<g id="edge59" class="edge">
<title>node72&#45;&gt;node68</title>
<path fill="none" stroke="black" d="M1048.77,-232.05C1045.03,-224.35 1040.5,-215.03 1036.29,-206.36"/>
<polygon fill="black" stroke="black" points="1039.57,-205.1 1032.05,-197.64 1033.27,-208.16 1039.57,-205.1"/>
</g>
<!-- node77 -->
<g id="node62" class="node">
<title>node77</title>
<ellipse fill="none" stroke="black" cx="1343" cy="-250" rx="102.46" ry="18"/>
<text text-anchor="middle" x="1343" y="-244.57" font-family="Times New Roman,serif" font-size="14.00">Designator (Kind: Local)</text>
</g>
<!-- node82&#45;&gt;node77 -->
<g id="edge65" class="edge">
<title>node82&#45;&gt;node77</title>
<path fill="none" stroke="black" d="M1525.28,-377.26C1489.2,-352.27 1418.63,-303.39 1376.67,-274.32"/>
<polygon fill="black" stroke="black" points="1378.87,-271.59 1368.66,-268.77 1374.88,-277.34 1378.87,-271.59"/>
</g>
<!-- node81 -->
<g id="node64" class="node">
<title>node81</title>
<ellipse fill="none" stroke="black" cx="1548" cy="-322" rx="55.06" ry="18"/>
<text text-anchor="middle" x="1548" y="-316.57" font-family="Times New Roman,serif" font-size="14.00">BinExpr (+)</text>
</g>
<!-- node82&#45;&gt;node81 -->
<g id="edge67" class="edge">
<title>node82&#45;&gt;node81</title>
<path fill="none" stroke="black" d="M1548,-375.7C1548,-368.41 1548,-359.73 1548,-351.54"/>
<polygon fill="black" stroke="black" points="1551.5,-351.62 1548,-341.62 1544.5,-351.62 1551.5,-351.62"/>
</g>
<!-- node76 -->
<g id="node63" class="node">
<title>node76</title>
<ellipse fill="none" stroke="black" cx="1343" cy="-178" rx="34.6" ry="18"/>
<text text-anchor="middle" x="1343" y="-172.57" font-family="Times New Roman,serif" font-size="14.00">Var (j)</text>
</g>
<!-- node77&#45;&gt;node76 -->
<g id="edge66" class="edge">
<title>node77&#45;&gt;node76</title>
<path fill="none" stroke="black" d="M1337.08,-231.7C1336.33,-224.41 1336.09,-215.73 1336.35,-207.54"/>
<polygon fill="black" stroke="black" points="1339.84,-207.82 1337.01,-197.61 1332.86,-207.36 1339.84,-207.82"/>
</g>
<!-- node77&#45;&gt;node76 -->
<g id="edge69" class="edge">
<title>node77&#45;&gt;node76</title>
<path fill="none" stroke="black" d="M1348.92,-231.7C1349.67,-224.41 1349.91,-215.73 1349.65,-207.54"/>
<polygon fill="black" stroke="black" points="1353.14,-207.36 1348.99,-197.61 1346.16,-207.82 1353.14,-207.36"/>
</g>
<!-- node81&#45;&gt;node77 -->
<g id="edge68" class="edge">
<title>node81&#45;&gt;node77</title>
<path fill="none" stroke="black" d="M1510.88,-308.32C1479.72,-297.68 1434.72,-282.32 1399.16,-270.18"/>
<polygon fill="black" stroke="black" points="1400.47,-266.93 1389.88,-267.01 1398.21,-273.55 1400.47,-266.93"/>
</g>
<!-- node80 -->
<g id="node65" class="node">
<title>node80</title>
<ellipse fill="none" stroke="black" cx="1566" cy="-250" rx="102.46" ry="18"/>
<text text-anchor="middle" x="1566" y="-244.57" font-family="Times New Roman,serif" font-size="14.00">Designator (Kind: Local)</text>
</g>
<!-- node81&#45;&gt;node80 -->
<g id="edge70" class="edge">
<title>node81&#45;&gt;node80</title>
<path fill="none" stroke="black" d="M1552.45,-303.7C1554.35,-296.32 1556.61,-287.52 1558.74,-279.25"/>
<polygon fill="black" stroke="black" points="1562.12,-280.13 1561.22,-269.57 1555.34,-278.38 1562.12,-280.13"/>
</g>
<!-- node79 -->
<g id="node66" class="node">
<title>node79</title>
<ellipse fill="none" stroke="black" cx="1566" cy="-178" rx="34.6" ry="18"/>
<text text-anchor="middle" x="1566" y="-172.57" font-family="Times New Roman,serif" font-size="14.00">Var (i)</text>
</g>
<!-- node80&#45;&gt;node79 -->
<g id="edge71" class="edge">
<title>node80&#45;&gt;node79</title>
<path fill="none" stroke="black" d="M1566,-231.7C1566,-224.41 1566,-215.73 1566,-207.54"/>
<polygon fill="black" stroke="black" points="1569.5,-207.62 1566,-197.62 1562.5,-207.62 1569.5,-207.62"/>
</g>
<!-- node86 -->
<g id="node68" class="node">
<title>node86</title>
<ellipse fill="none" stroke="black" cx="1448" cy="-557.86" rx="102.46" ry="18"/>
<text text-anchor="middle" x="1448" y="-552.44" font-family="Times New Roman,serif" font-size="14.00">Designator (Kind: Local)</text>
</g>
<!-- node89&#45;&gt;node86 -->
<g id="edge73" class="edge">
<title>node89&#45;&gt;node86</title>
<path fill="none" stroke="black" d="M1411.13,-683.43C1411.68,-665.22 1413.76,-635.99 1421,-611.86 1423.64,-603.06 1427.71,-593.97 1431.89,-585.86"/>
<polygon fill="black" stroke="black" points="1434.9,-587.65 1436.62,-577.19 1428.76,-584.29 1434.9,-587.65"/>
</g>
<!-- node88 -->
<g id="node70" class="node">
<title>node88</title>
<ellipse fill="none" stroke="black" cx="1485" cy="-629.86" rx="55.06" ry="18"/>
<text text-anchor="middle" x="1485" y="-624.44" font-family="Times New Roman,serif" font-size="14.00">BinExpr (+)</text>
</g>
<!-- node89&#45;&gt;node88 -->
<g id="edge75" class="edge">
<title>node89&#45;&gt;node88</title>
<path fill="none" stroke="black" d="M1428.16,-684.63C1437.44,-675.85 1449.07,-664.85 1459.39,-655.09"/>
<polygon fill="black" stroke="black" points="1461.71,-657.71 1466.57,-648.29 1456.9,-652.62 1461.71,-657.71"/>
</g>
<!-- node85 -->
<g id="node69" class="node">
<title>node85</title>
<ellipse fill="none" stroke="black" cx="1633" cy="-475.93" rx="34.6" ry="18"/>
<text text-anchor="middle" x="1633" y="-470.51" font-family="Times New Roman,serif" font-size="14.00">Var (i)</text>
</g>
<!-- node86&#45;&gt;node85 -->
<g id="edge74" class="edge">
<title>node86&#45;&gt;node85</title>
<path fill="none" stroke="black" d="M1490.05,-540.98C1516.68,-531.5 1551.38,-518.47 1581,-503.86 1586.77,-501.01 1592.75,-497.6 1598.55,-494.17"/>
<polygon fill="black" stroke="black" points="1599.99,-497.39 1606.79,-489.27 1596.41,-491.38 1599.99,-497.39"/>
</g>
<!-- node86&#45;&gt;node85 -->
<g id="edge77" class="edge">
<title>node86&#45;&gt;node85</title>
<path fill="none" stroke="black" d="M1502.19,-542.2C1531.63,-532.64 1568.09,-519.11 1599,-503.86 1602.32,-502.22 1605.7,-500.4 1609.01,-498.49"/>
<polygon fill="black" stroke="black" points="1610.55,-501.65 1617.23,-493.43 1606.88,-495.69 1610.55,-501.65"/>
</g>
<!-- node88&#45;&gt;node86 -->
<g id="edge76" class="edge">
<title>node88&#45;&gt;node86</title>
<path fill="none" stroke="black" d="M1476.04,-611.92C1471.97,-604.21 1467.04,-594.89 1462.46,-586.23"/>
<polygon fill="black" stroke="black" points="1465.61,-584.68 1457.84,-577.47 1459.42,-587.95 1465.61,-584.68"/>
</g>
<!-- node87 -->
<g id="node71" class="node">
<title>node87</title>
<ellipse fill="none" stroke="black" cx="1618" cy="-557.86" rx="49.57" ry="18"/>
<text text-anchor="middle" x="1618" y="-552.44" font-family="Times New Roman,serif" font-size="14.00">IntCon (1)</text>
</g>
<!-- node88&#45;&gt;node87 -->
<g id="edge78" class="edge">
<title>node88&#45;&gt;node87</title>
<path fill="none" stroke="black" d="M1513.21,-614.02C1532.86,-603.67 1559.3,-589.76 1580.7,-578.5"/>
<polygon fill="black" stroke="black" points="1582.19,-581.67 1589.41,-573.91 1578.93,-575.47 1582.19,-581.67"/>
</g>
<!-- node92 -->
<g id="node73" class="node">
<title>node92</title>
<ellipse fill="none" stroke="black" cx="1761" cy="-917.86" rx="32.6" ry="18"/>
<text text-anchor="middle" x="1761" y="-912.44" font-family="Times New Roman,serif" font-size="14.00">Block</text>
</g>
<!-- node91&#45;&gt;node92 -->
<g id="edge80" class="edge">
<title>node91&#45;&gt;node92</title>
<path fill="none" stroke="black" d="M1760.25,-971.56C1760.35,-964.27 1760.48,-955.59 1760.59,-947.4"/>
<polygon fill="black" stroke="black" points="1764.09,-947.53 1760.73,-937.48 1757.09,-947.43 1764.09,-947.53"/>
</g>
<!-- node98 -->
<g id="node74" class="node">
<title>node98</title>
<ellipse fill="none" stroke="black" cx="1763" cy="-845.86" rx="70.52" ry="18"/>
<text text-anchor="middle" x="1763" y="-840.44" font-family="Times New Roman,serif" font-size="14.00">Call print_prims</text>
</g>
<!-- node92&#45;&gt;node98 -->
<g id="edge81" class="edge">
<title>node92&#45;&gt;node98</title>
<path fill="none" stroke="black" d="M1761.49,-899.56C1761.7,-892.27 1761.95,-883.59 1762.18,-875.4"/>
<polygon fill="black" stroke="black" points="1765.68,-875.57 1762.47,-865.48 1758.68,-875.37 1765.68,-875.57"/>
</g>
<!-- node96 -->
<g id="node75" class="node">
<title>node96</title>
<ellipse fill="none" stroke="black" cx="1763" cy="-773.86" rx="63.04" ry="18"/>
<text text-anchor="middle" x="1763" y="-768.44" font-family="Times New Roman,serif" font-size="14.00">IntCon (1000)</text>
</g>
<!-- node98&#45;&gt;node96 -->
<g id="edge82" class="edge">
<title>node98&#45;&gt;node96</title>
<path fill="none" stroke="black" d="M1763,-827.56C1763,-820.27 1763,-811.59 1763,-803.4"/>
<polygon fill="black" stroke="black" points="1766.5,-803.48 1763,-793.48 1759.5,-803.48 1766.5,-803.48"/>
</g>
</g>
</svg>
