<?xml version="1.0" encoding="UTF-8" standalone="no"?>
<!DOCTYPE svg PUBLIC "-//W3C//DTD SVG 1.1//EN"
 "http://www.w3.org/Graphics/SVG/1.1/DTD/svg11.dtd">
<!-- Generated by graphviz version 11.0.0 (20240428.1522)
 -->
<!-- Title: G Pages: 1 -->
<svg width="1883pt" height="492pt"
 viewBox="0.00 0.00 1883.00 492.00" xmlns="http://www.w3.org/2000/svg" xmlns:xlink="http://www.w3.org/1999/xlink">
<g id="graph0" class="graph" transform="scale(1 1) rotate(0) translate(4 488)">
<title>G</title>
<polygon fill="white" stroke="none" points="-4,4 -4,-488 1879,-488 1879,4 -4,4"/>
<g id="clust1" class="cluster">
<title>cluster_node16</title>
<polygon fill="none" stroke="black" points="8,-8 8,-420 1299,-420 1299,-8 8,-8"/>
</g>
<g id="clust2" class="cluster">
<title>cluster_node4</title>
<polygon fill="none" stroke="black" points="1307,-80 1307,-420 1867,-420 1867,-80 1307,-80"/>
</g>
<!-- node0 -->
<g id="node1" class="node">
<title>node0</title>
<ellipse fill="none" stroke="black" cx="1316" cy="-466" rx="106.45" ry="18"/>
<text text-anchor="middle" x="1316" y="-460.57" font-family="Times New Roman,serif" font-size="14.00">Program (TestSideEffect)</text>
</g>
<!-- node16 -->
<g id="node2" class="node">
<title>node16</title>
<ellipse fill="none" stroke="black" cx="1117" cy="-394" rx="65.53" ry="18"/>
<text text-anchor="middle" x="1117" y="-388.57" font-family="Times New Roman,serif" font-size="14.00">Method (main)</text>
</g>
<!-- node0&#45;&gt;node16 -->
<g id="edge1" class="edge">
<title>node0&#45;&gt;node16</title>
<path fill="none" stroke="black" d="M1271.34,-449.29C1240.25,-438.35 1198.77,-423.76 1166.64,-412.46"/>
<polygon fill="black" stroke="black" points="1168.15,-409.28 1157.56,-409.27 1165.83,-415.89 1168.15,-409.28"/>
</g>
<!-- node4 -->
<g id="node29" class="node">
<title>node4</title>
<ellipse fill="none" stroke="black" cx="1444" cy="-394" rx="61.04" ry="18"/>
<text text-anchor="middle" x="1444" y="-388.57" font-family="Times New Roman,serif" font-size="14.00">Method (foo)</text>
</g>
<!-- node0&#45;&gt;node4 -->
<g id="edge28" class="edge">
<title>node0&#45;&gt;node4</title>
<path fill="none" stroke="black" d="M1346.33,-448.41C1364.26,-438.61 1387.1,-426.12 1406.19,-415.68"/>
<polygon fill="black" stroke="black" points="1407.65,-418.87 1414.74,-411 1404.29,-412.73 1407.65,-418.87"/>
</g>
<!-- node17 -->
<g id="node3" class="node">
<title>node17</title>
<ellipse fill="none" stroke="black" cx="910" cy="-322" rx="32.6" ry="18"/>
<text text-anchor="middle" x="910" y="-316.57" font-family="Times New Roman,serif" font-size="14.00">Block</text>
</g>
<!-- node16&#45;&gt;node17 -->
<g id="edge2" class="edge">
<title>node16&#45;&gt;node17</title>
<path fill="none" stroke="black" d="M1077.09,-379.5C1039.82,-366.9 984.6,-348.23 947.98,-335.84"/>
<polygon fill="black" stroke="black" points="949.28,-332.59 938.68,-332.7 947.03,-339.22 949.28,-332.59"/>
</g>
<!-- node23 -->
<g id="node4" class="node">
<title>node23</title>
<ellipse fill="none" stroke="black" cx="301" cy="-250" rx="54.06" ry="18"/>
<text text-anchor="middle" x="301" y="-244.57" font-family="Times New Roman,serif" font-size="14.00">Assignment</text>
</g>
<!-- node17&#45;&gt;node23 -->
<g id="edge3" class="edge">
<title>node17&#45;&gt;node23</title>
<path fill="none" stroke="black" d="M878.11,-317.34C781.42,-306.22 490.33,-272.76 362.42,-258.06"/>
<polygon fill="black" stroke="black" points="363.13,-254.62 352.8,-256.95 362.33,-261.57 363.13,-254.62"/>
</g>
<!-- node31 -->
<g id="node9" class="node">
<title>node31</title>
<ellipse fill="none" stroke="black" cx="641" cy="-250" rx="54.06" ry="18"/>
<text text-anchor="middle" x="641" y="-244.57" font-family="Times New Roman,serif" font-size="14.00">Assignment</text>
</g>
<!-- node17&#45;&gt;node31 -->
<g id="edge8" class="edge">
<title>node17&#45;&gt;node31</title>
<path fill="none" stroke="black" d="M880.63,-313.56C840.65,-303.4 766.85,-284.56 704,-268 700.44,-267.06 696.77,-266.09 693.07,-265.1"/>
<polygon fill="black" stroke="black" points="694.01,-261.73 683.45,-262.53 692.2,-268.49 694.01,-261.73"/>
</g>
<!-- node39 -->
<g id="node15" class="node">
<title>node39</title>
<ellipse fill="none" stroke="black" cx="811" cy="-250" rx="97.97" ry="18"/>
<text text-anchor="middle" x="811" y="-244.57" font-family="Times New Roman,serif" font-size="14.00">BinOpAssignment (++)</text>
</g>
<!-- node17&#45;&gt;node39 -->
<g id="edge14" class="edge">
<title>node17&#45;&gt;node39</title>
<path fill="none" stroke="black" d="M890.44,-307.17C877.19,-297.8 859.35,-285.19 843.93,-274.29"/>
<polygon fill="black" stroke="black" points="846.13,-271.55 835.94,-268.64 842.09,-277.27 846.13,-271.55"/>
</g>
<!-- node46 -->
<g id="node19" class="node">
<title>node46</title>
<ellipse fill="none" stroke="black" cx="1009" cy="-250" rx="82" ry="18"/>
<text text-anchor="middle" x="1009" y="-244.57" font-family="Times New Roman,serif" font-size="14.00">IntPrint (width = 0)</text>
</g>
<!-- node17&#45;&gt;node46 -->
<g id="edge18" class="edge">
<title>node17&#45;&gt;node46</title>
<path fill="none" stroke="black" d="M929.56,-307.17C942.91,-297.73 960.9,-285.01 976.39,-274.06"/>
<polygon fill="black" stroke="black" points="978.27,-277.02 984.41,-268.38 974.23,-271.3 978.27,-277.02"/>
</g>
<!-- node53 -->
<g id="node24" class="node">
<title>node53</title>
<ellipse fill="none" stroke="black" cx="1191" cy="-250" rx="82" ry="18"/>
<text text-anchor="middle" x="1191" y="-244.57" font-family="Times New Roman,serif" font-size="14.00">IntPrint (width = 0)</text>
</g>
<!-- node17&#45;&gt;node53 -->
<g id="edge23" class="edge">
<title>node17&#45;&gt;node53</title>
<path fill="none" stroke="black" d="M939.28,-313.71C983.45,-302.7 1068.23,-281.58 1127.12,-266.91"/>
<polygon fill="black" stroke="black" points="1127.84,-270.34 1136.7,-264.53 1126.15,-263.55 1127.84,-270.34"/>
</g>
<!-- node19 -->
<g id="node5" class="node">
<title>node19</title>
<ellipse fill="none" stroke="black" cx="118" cy="-178" rx="102.46" ry="18"/>
<text text-anchor="middle" x="118" y="-172.57" font-family="Times New Roman,serif" font-size="14.00">Designator (Kind: Static)</text>
</g>
<!-- node23&#45;&gt;node19 -->
<g id="edge4" class="edge">
<title>node23&#45;&gt;node19</title>
<path fill="none" stroke="black" d="M266.58,-235.83C239.35,-225.42 200.89,-210.71 169.93,-198.86"/>
<polygon fill="black" stroke="black" points="171.32,-195.65 160.73,-195.34 168.82,-202.19 171.32,-195.65"/>
</g>
<!-- node22 -->
<g id="node7" class="node">
<title>node22</title>
<ellipse fill="none" stroke="black" cx="301" cy="-178" rx="62.54" ry="18"/>
<text text-anchor="middle" x="301" y="-172.57" font-family="Times New Roman,serif" font-size="14.00">UnaryExpr (&#45;)</text>
</g>
<!-- node23&#45;&gt;node22 -->
<g id="edge6" class="edge">
<title>node23&#45;&gt;node22</title>
<path fill="none" stroke="black" d="M301,-231.7C301,-224.41 301,-215.73 301,-207.54"/>
<polygon fill="black" stroke="black" points="304.5,-207.62 301,-197.62 297.5,-207.62 304.5,-207.62"/>
</g>
<!-- node18 -->
<g id="node6" class="node">
<title>node18</title>
<ellipse fill="none" stroke="black" cx="71" cy="-106" rx="55.06" ry="18"/>
<text text-anchor="middle" x="71" y="-100.58" font-family="Times New Roman,serif" font-size="14.00">Var (global)</text>
</g>
<!-- node19&#45;&gt;node18 -->
<g id="edge5" class="edge">
<title>node19&#45;&gt;node18</title>
<path fill="none" stroke="black" d="M106.38,-159.7C101.01,-151.7 94.51,-142.02 88.56,-133.15"/>
<polygon fill="black" stroke="black" points="91.48,-131.23 83,-124.88 85.67,-135.13 91.48,-131.23"/>
</g>
<!-- node21 -->
<g id="node8" class="node">
<title>node21</title>
<ellipse fill="none" stroke="black" cx="194" cy="-106" rx="49.57" ry="18"/>
<text text-anchor="middle" x="194" y="-100.58" font-family="Times New Roman,serif" font-size="14.00">IntCon (1)</text>
</g>
<!-- node22&#45;&gt;node21 -->
<g id="edge7" class="edge">
<title>node22&#45;&gt;node21</title>
<path fill="none" stroke="black" d="M276.72,-161.12C262.01,-151.5 243.06,-139.1 227.01,-128.59"/>
<polygon fill="black" stroke="black" points="229,-125.71 218.72,-123.17 225.17,-131.57 229,-125.71"/>
</g>
<!-- node25 -->
<g id="node10" class="node">
<title>node25</title>
<ellipse fill="none" stroke="black" cx="484" cy="-178" rx="102.46" ry="18"/>
<text text-anchor="middle" x="484" y="-172.57" font-family="Times New Roman,serif" font-size="14.00">Designator (Kind: Local)</text>
</g>
<!-- node31&#45;&gt;node25 -->
<g id="edge9" class="edge">
<title>node31&#45;&gt;node25</title>
<path fill="none" stroke="black" d="M609.61,-235C586.96,-224.9 556,-211.1 530.49,-199.73"/>
<polygon fill="black" stroke="black" points="532.23,-196.67 521.67,-195.8 529.38,-203.07 532.23,-196.67"/>
</g>
<!-- node30 -->
<g id="node12" class="node">
<title>node30</title>
<ellipse fill="none" stroke="black" cx="653" cy="-178" rx="48.57" ry="18"/>
<text text-anchor="middle" x="653" y="-172.57" font-family="Times New Roman,serif" font-size="14.00">NewArray</text>
</g>
<!-- node31&#45;&gt;node30 -->
<g id="edge11" class="edge">
<title>node31&#45;&gt;node30</title>
<path fill="none" stroke="black" d="M643.97,-231.7C645.23,-224.32 646.74,-215.52 648.16,-207.25"/>
<polygon fill="black" stroke="black" points="651.57,-208.04 649.81,-197.6 644.67,-206.86 651.57,-208.04"/>
</g>
<!-- node24 -->
<g id="node11" class="node">
<title>node24</title>
<ellipse fill="none" stroke="black" cx="323" cy="-106" rx="61.04" ry="18"/>
<text text-anchor="middle" x="323" y="-100.58" font-family="Times New Roman,serif" font-size="14.00">Var (arr [arr])</text>
</g>
<!-- node25&#45;&gt;node24 -->
<g id="edge10" class="edge">
<title>node25&#45;&gt;node24</title>
<path fill="none" stroke="black" d="M446.66,-160.76C422.76,-150.37 391.66,-136.85 366.63,-125.97"/>
<polygon fill="black" stroke="black" points="368.26,-122.86 357.7,-122.09 365.47,-129.28 368.26,-122.86"/>
</g>
<!-- node27 -->
<g id="node13" class="node">
<title>node27</title>
<ellipse fill="none" stroke="black" cx="450" cy="-106" rx="47.57" ry="18"/>
<text text-anchor="middle" x="450" y="-100.58" font-family="Times New Roman,serif" font-size="14.00">Type (int)</text>
</g>
<!-- node30&#45;&gt;node27 -->
<g id="edge12" class="edge">
<title>node30&#45;&gt;node27</title>
<path fill="none" stroke="black" d="M618.56,-165.13C584.49,-153.37 532.15,-135.33 494.84,-122.46"/>
<polygon fill="black" stroke="black" points="496.29,-119.26 485.7,-119.31 494.01,-125.88 496.29,-119.26"/>
</g>
<!-- node29 -->
<g id="node14" class="node">
<title>node29</title>
<ellipse fill="none" stroke="black" cx="565" cy="-106" rx="49.57" ry="18"/>
<text text-anchor="middle" x="565" y="-100.58" font-family="Times New Roman,serif" font-size="14.00">IntCon (2)</text>
</g>
<!-- node30&#45;&gt;node29 -->
<g id="edge13" class="edge">
<title>node30&#45;&gt;node29</title>
<path fill="none" stroke="black" d="M633.03,-161.12C621.44,-151.9 606.65,-140.13 593.81,-129.92"/>
<polygon fill="black" stroke="black" points="596.08,-127.25 586.07,-123.76 591.72,-132.73 596.08,-127.25"/>
</g>
<!-- node33 -->
<g id="node16" class="node">
<title>node33</title>
<ellipse fill="none" stroke="black" cx="820" cy="-178" rx="99.97" ry="18"/>
<text text-anchor="middle" x="820" y="-172.57" font-family="Times New Roman,serif" font-size="14.00">Designator (Kind: Elem)</text>
</g>
<!-- node39&#45;&gt;node33 -->
<g id="edge15" class="edge">
<title>node39&#45;&gt;node33</title>
<path fill="none" stroke="black" d="M813.22,-231.7C814.17,-224.32 815.3,-215.52 816.37,-207.25"/>
<polygon fill="black" stroke="black" points="819.8,-207.97 817.61,-197.61 812.86,-207.08 819.8,-207.97"/>
</g>
<!-- node32 -->
<g id="node17" class="node">
<title>node32</title>
<ellipse fill="none" stroke="black" cx="694" cy="-106" rx="61.04" ry="18"/>
<text text-anchor="middle" x="694" y="-100.58" font-family="Times New Roman,serif" font-size="14.00">Var (arr [arr])</text>
</g>
<!-- node33&#45;&gt;node32 -->
<g id="edge16" class="edge">
<title>node33&#45;&gt;node32</title>
<path fill="none" stroke="black" d="M790.14,-160.41C772.58,-150.65 750.21,-138.23 731.48,-127.82"/>
<polygon fill="black" stroke="black" points="733.26,-124.81 722.82,-123.01 729.86,-130.93 733.26,-124.81"/>
</g>
<!-- node37 -->
<g id="node18" class="node">
<title>node37</title>
<ellipse fill="none" stroke="black" cx="814" cy="-106" rx="40.58" ry="18"/>
<text text-anchor="middle" x="814" y="-100.58" font-family="Times New Roman,serif" font-size="14.00">Call foo</text>
</g>
<!-- node33&#45;&gt;node37 -->
<g id="edge17" class="edge">
<title>node33&#45;&gt;node37</title>
<path fill="none" stroke="black" d="M818.52,-159.7C817.89,-152.41 817.15,-143.73 816.45,-135.54"/>
<polygon fill="black" stroke="black" points="819.94,-135.28 815.6,-125.61 812.96,-135.87 819.94,-135.28"/>
</g>
<!-- node45 -->
<g id="node20" class="node">
<title>node45</title>
<ellipse fill="none" stroke="black" cx="998" cy="-178" rx="48.57" ry="18"/>
<text text-anchor="middle" x="998" y="-172.57" font-family="Times New Roman,serif" font-size="14.00">LoadElem</text>
</g>
<!-- node46&#45;&gt;node45 -->
<g id="edge19" class="edge">
<title>node46&#45;&gt;node45</title>
<path fill="none" stroke="black" d="M1006.28,-231.7C1005.12,-224.32 1003.74,-215.52 1002.44,-207.25"/>
<polygon fill="black" stroke="black" points="1005.93,-206.93 1000.92,-197.6 999.02,-208.02 1005.93,-206.93"/>
</g>
<!-- node42 -->
<g id="node21" class="node">
<title>node42</title>
<ellipse fill="none" stroke="black" cx="973" cy="-106" rx="99.97" ry="18"/>
<text text-anchor="middle" x="973" y="-100.58" font-family="Times New Roman,serif" font-size="14.00">Designator (Kind: Elem)</text>
</g>
<!-- node45&#45;&gt;node42 -->
<g id="edge20" class="edge">
<title>node45&#45;&gt;node42</title>
<path fill="none" stroke="black" d="M991.82,-159.7C989.13,-152.15 985.9,-143.12 982.89,-134.68"/>
<polygon fill="black" stroke="black" points="986.28,-133.77 979.62,-125.53 979.69,-136.12 986.28,-133.77"/>
</g>
<!-- node41 -->
<g id="node22" class="node">
<title>node41</title>
<ellipse fill="none" stroke="black" cx="846" cy="-34" rx="61.04" ry="18"/>
<text text-anchor="middle" x="846" y="-28.57" font-family="Times New Roman,serif" font-size="14.00">Var (arr [arr])</text>
</g>
<!-- node42&#45;&gt;node41 -->
<g id="edge21" class="edge">
<title>node42&#45;&gt;node41</title>
<path fill="none" stroke="black" d="M942.9,-88.41C925.2,-78.65 902.66,-66.23 883.77,-55.82"/>
<polygon fill="black" stroke="black" points="885.48,-52.77 875.04,-51 882.11,-58.9 885.48,-52.77"/>
</g>
<!-- node44 -->
<g id="node23" class="node">
<title>node44</title>
<ellipse fill="none" stroke="black" cx="975" cy="-34" rx="49.57" ry="18"/>
<text text-anchor="middle" x="975" y="-28.57" font-family="Times New Roman,serif" font-size="14.00">IntCon (0)</text>
</g>
<!-- node42&#45;&gt;node44 -->
<g id="edge22" class="edge">
<title>node42&#45;&gt;node44</title>
<path fill="none" stroke="black" d="M973.49,-87.7C973.7,-80.41 973.95,-71.73 974.18,-63.54"/>
<polygon fill="black" stroke="black" points="977.68,-63.71 974.47,-53.62 970.68,-63.51 977.68,-63.71"/>
</g>
<!-- node52 -->
<g id="node25" class="node">
<title>node52</title>
<ellipse fill="none" stroke="black" cx="1191" cy="-178" rx="48.57" ry="18"/>
<text text-anchor="middle" x="1191" y="-172.57" font-family="Times New Roman,serif" font-size="14.00">LoadElem</text>
</g>
<!-- node53&#45;&gt;node52 -->
<g id="edge24" class="edge">
<title>node53&#45;&gt;node52</title>
<path fill="none" stroke="black" d="M1191,-231.7C1191,-224.41 1191,-215.73 1191,-207.54"/>
<polygon fill="black" stroke="black" points="1194.5,-207.62 1191,-197.62 1187.5,-207.62 1194.5,-207.62"/>
</g>
<!-- node49 -->
<g id="node26" class="node">
<title>node49</title>
<ellipse fill="none" stroke="black" cx="1191" cy="-106" rx="99.97" ry="18"/>
<text text-anchor="middle" x="1191" y="-100.58" font-family="Times New Roman,serif" font-size="14.00">Designator (Kind: Elem)</text>
</g>
<!-- node52&#45;&gt;node49 -->
<g id="edge25" class="edge">
<title>node52&#45;&gt;node49</title>
<path fill="none" stroke="black" d="M1191,-159.7C1191,-152.41 1191,-143.73 1191,-135.54"/>
<polygon fill="black" stroke="black" points="1194.5,-135.62 1191,-125.62 1187.5,-135.62 1194.5,-135.62"/>
</g>
<!-- node48 -->
<g id="node27" class="node">
<title>node48</title>
<ellipse fill="none" stroke="black" cx="1109" cy="-34" rx="61.04" ry="18"/>
<text text-anchor="middle" x="1109" y="-28.57" font-family="Times New Roman,serif" font-size="14.00">Var (arr [arr])</text>
</g>
<!-- node49&#45;&gt;node48 -->
<g id="edge26" class="edge">
<title>node49&#45;&gt;node48</title>
<path fill="none" stroke="black" d="M1171.15,-88.05C1160.9,-79.31 1148.23,-68.49 1137,-58.9"/>
<polygon fill="black" stroke="black" points="1139.41,-56.36 1129.54,-52.53 1134.87,-61.68 1139.41,-56.36"/>
</g>
<!-- node51 -->
<g id="node28" class="node">
<title>node51</title>
<ellipse fill="none" stroke="red" cx="1238" cy="-34" rx="49.57" ry="18"/>
<text text-anchor="middle" x="1238" y="-28.57" font-family="Times New Roman,serif" font-size="14.00">IntCon (1)</text>
</g>
<!-- node49&#45;&gt;node51 -->
<g id="edge27" class="edge">
<title>node49&#45;&gt;node51</title>
<path fill="none" stroke="black" d="M1202.62,-87.7C1207.99,-79.7 1214.49,-70.02 1220.44,-61.15"/>
<polygon fill="black" stroke="black" points="1223.33,-63.13 1226,-52.88 1217.52,-59.23 1223.33,-63.13"/>
</g>
<!-- node5 -->
<g id="node30" class="node">
<title>node5</title>
<ellipse fill="none" stroke="black" cx="1464" cy="-322" rx="32.6" ry="18"/>
<text text-anchor="middle" x="1464" y="-316.57" font-family="Times New Roman,serif" font-size="14.00">Block</text>
</g>
<!-- node4&#45;&gt;node5 -->
<g id="edge29" class="edge">
<title>node4&#45;&gt;node5</title>
<path fill="none" stroke="black" d="M1448.94,-375.7C1451.08,-368.24 1453.62,-359.32 1456.01,-350.97"/>
<polygon fill="black" stroke="black" points="1459.32,-352.14 1458.7,-341.56 1452.58,-350.21 1459.32,-352.14"/>
</g>
<!-- node10 -->
<g id="node31" class="node">
<title>node10</title>
<ellipse fill="none" stroke="black" cx="1464" cy="-250" rx="97.97" ry="18"/>
<text text-anchor="middle" x="1464" y="-244.57" font-family="Times New Roman,serif" font-size="14.00">BinOpAssignment (+=)</text>
</g>
<!-- node5&#45;&gt;node10 -->
<g id="edge30" class="edge">
<title>node5&#45;&gt;node10</title>
<path fill="none" stroke="black" d="M1464,-303.7C1464,-296.41 1464,-287.73 1464,-279.54"/>
<polygon fill="black" stroke="black" points="1467.5,-279.62 1464,-269.62 1460.5,-279.62 1467.5,-279.62"/>
</g>
<!-- node15 -->
<g id="node35" class="node">
<title>node15</title>
<ellipse fill="none" stroke="black" cx="1710" cy="-250" rx="35.6" ry="18"/>
<text text-anchor="middle" x="1710" y="-244.57" font-family="Times New Roman,serif" font-size="14.00">Return</text>
</g>
<!-- node5&#45;&gt;node15 -->
<g id="edge34" class="edge">
<title>node5&#45;&gt;node15</title>
<path fill="none" stroke="black" d="M1492.7,-312.83C1536.09,-300.49 1618.6,-277.01 1668.52,-262.8"/>
<polygon fill="black" stroke="black" points="1669.44,-266.18 1678.11,-260.08 1667.53,-259.45 1669.44,-266.18"/>
</g>
<!-- node7 -->
<g id="node32" class="node">
<title>node7</title>
<ellipse fill="none" stroke="black" cx="1417" cy="-178" rx="102.46" ry="18"/>
<text text-anchor="middle" x="1417" y="-172.57" font-family="Times New Roman,serif" font-size="14.00">Designator (Kind: Static)</text>
</g>
<!-- node10&#45;&gt;node7 -->
<g id="edge31" class="edge">
<title>node10&#45;&gt;node7</title>
<path fill="none" stroke="black" d="M1452.38,-231.7C1447.09,-223.81 1440.7,-214.3 1434.82,-205.55"/>
<polygon fill="black" stroke="black" points="1437.81,-203.71 1429.33,-197.36 1432,-207.61 1437.81,-203.71"/>
</g>
<!-- node9 -->
<g id="node34" class="node">
<title>node9</title>
<ellipse fill="none" stroke="black" cx="1587" cy="-178" rx="49.57" ry="18"/>
<text text-anchor="middle" x="1587" y="-172.57" font-family="Times New Roman,serif" font-size="14.00">IntCon (1)</text>
</g>
<!-- node10&#45;&gt;node9 -->
<g id="edge33" class="edge">
<title>node10&#45;&gt;node9</title>
<path fill="none" stroke="black" d="M1493.15,-232.41C1510.53,-222.52 1532.74,-209.88 1551.18,-199.38"/>
<polygon fill="black" stroke="black" points="1552.71,-202.54 1559.67,-194.55 1549.25,-196.46 1552.71,-202.54"/>
</g>
<!-- node6 -->
<g id="node33" class="node">
<title>node6</title>
<ellipse fill="none" stroke="black" cx="1417" cy="-106" rx="55.06" ry="18"/>
<text text-anchor="middle" x="1417" y="-100.58" font-family="Times New Roman,serif" font-size="14.00">Var (global)</text>
</g>
<!-- node7&#45;&gt;node6 -->
<g id="edge32" class="edge">
<title>node7&#45;&gt;node6</title>
<path fill="none" stroke="black" d="M1417,-159.7C1417,-152.41 1417,-143.73 1417,-135.54"/>
<polygon fill="black" stroke="black" points="1420.5,-135.62 1417,-125.62 1413.5,-135.62 1420.5,-135.62"/>
</g>
<!-- node14 -->
<g id="node36" class="node">
<title>node14</title>
<ellipse fill="none" stroke="black" cx="1757" cy="-178" rx="102.46" ry="18"/>
<text text-anchor="middle" x="1757" y="-172.57" font-family="Times New Roman,serif" font-size="14.00">Designator (Kind: Static)</text>
</g>
<!-- node15&#45;&gt;node14 -->
<g id="edge35" class="edge">
<title>node15&#45;&gt;node14</title>
<path fill="none" stroke="black" d="M1721.14,-232.41C1726.56,-224.34 1733.21,-214.43 1739.3,-205.35"/>
<polygon fill="black" stroke="black" points="1742.1,-207.47 1744.77,-197.21 1736.29,-203.56 1742.1,-207.47"/>
</g>
<!-- node13 -->
<g id="node37" class="node">
<title>node13</title>
<ellipse fill="none" stroke="black" cx="1757" cy="-106" rx="55.06" ry="18"/>
<text text-anchor="middle" x="1757" y="-100.58" font-family="Times New Roman,serif" font-size="14.00">Var (global)</text>
</g>
<!-- node14&#45;&gt;node13 -->
<g id="edge36" class="edge">
<title>node14&#45;&gt;node13</title>
<path fill="none" stroke="black" d="M1757,-159.7C1757,-152.41 1757,-143.73 1757,-135.54"/>
<polygon fill="black" stroke="black" points="1760.5,-135.62 1757,-125.62 1753.5,-135.62 1760.5,-135.62"/>
</g>
</g>
</svg>
